<svg width="20" height="20" viewBox="0 0 20 20" fill="none" xmlns="http://www.w3.org/2000/svg">
<path d="M18.0833 6.33333C17.9167 5.08333 16.8333 4.16667 15.5833 4.16667H12.5833C12.75 3.75 12.9167 3.33333 12.9167 2.91667C12.9167 1.33333 11.5833 0 10 0C8.41667 0 7.08333 1.33333 7.08333 2.91667C7.08333 4.5 7.16667 3.75 7.41667 4.16667H4.41667C3.16667 4.16667 2.08333 5.08333 1.91667 6.33333L0 19.5V20H20V19.5833L18.0833 6.33333ZM10 1.66667C10.6667 1.66667 11.25 2.25 11.25 2.91667C11.25 3.58333 10.6667 4.16667 10 4.16667C9.33333 4.16667 8.75 3.58333 8.75 2.91667C8.75 2.25 9.33333 1.66667 10 1.66667ZM8.25 15.5833L6.58333 13.5V15.5833H5.16667V9.91667H6.58333V12L8.08333 9.91667H9.75L7.66667 12.75L10 15.6667H8.25V15.5833ZM14.8333 15.5833H13.9167V15.0833C13.4167 15.5 12.9167 15.6667 12.25 15.6667C10.5833 15.6667 9.33333 14.4167 9.33333 12.75C9.33333 11.0833 10.5833 9.83333 12.25 9.83333C13.9167 9.83333 14 10.1667 14.5 10.9167L14.6667 11.0833L13.5 11.9167V11.75C13.0833 11.4167 12.75 11.25 12.3333 11.25C11.3333 11.25 10.9167 12.0833 10.9167 12.75C10.9167 13.4167 11.3333 14.25 12.3333 14.25C13.3333 14.25 13.5 13.8333 13.5833 13.5H12.1667V12.1667H14.9167V15.5833H14.8333Z" fill="#ED3237"/>
</svg>
