<svg width="21" height="20" viewBox="0 0 21 20" fill="none" xmlns="http://www.w3.org/2000/svg">
<path d="M11.0442 4.2325C11.8533 3.475 12.9975 2.26583 13.4558 1.1125C13.6683 0.578333 13.2417 0 12.6667 0H7.66667C7.09167 0 6.665 0.5775 6.8775 1.1125C7.33583 2.26583 8.48 3.475 9.28917 4.2325C4.8075 4.89833 1 10.515 1 15C1 17.7575 3.2425 20 6 20H14.3333C17.0908 20 19.3333 17.7575 19.3333 15C19.3333 10.515 15.5258 4.89833 11.0442 4.2325ZM9.03667 11.4675L11.5717 11.89C12.6892 12.0758 13.5008 13.0342 13.5008 14.1675C13.5008 15.5458 12.3792 16.6675 11.0008 16.6675V17.5008C11.0008 17.9608 10.6275 18.3342 10.1675 18.3342C9.7075 18.3342 9.33417 17.9608 9.33417 17.5008V16.6675H9.11083C8.22083 16.6675 7.39167 16.1892 6.94583 15.4183C6.71583 15.02 6.85167 14.5108 7.25 14.28C7.64667 14.0492 8.1575 14.185 8.38833 14.5842C8.53667 14.8408 8.81417 15.0008 9.11083 15.0008H11.0008C11.46 15.0008 11.8342 14.6267 11.8342 14.1675C11.8342 13.8525 11.6083 13.5858 11.2975 13.5342L8.7625 13.1117C7.645 12.9258 6.83333 11.9675 6.83333 10.8342C6.83333 9.45583 7.955 8.33417 9.33333 8.33417V7.50083C9.33333 7.04083 9.70667 6.6675 10.1667 6.6675C10.6267 6.6675 11 7.04083 11 7.50083V8.33417H11.2233C12.1125 8.33417 12.9425 8.81333 13.3883 9.58417C13.6183 9.9825 13.4825 10.4917 13.0842 10.7225C12.6867 10.9533 12.1767 10.8175 11.9458 10.4183C11.7967 10.1608 11.52 10.0017 11.2233 10.0017H9.33333C8.87417 10.0017 8.5 10.3758 8.5 10.835C8.5 11.15 8.72583 11.4167 9.03667 11.4683V11.4675Z" fill="#ED3237"/>
</svg>
