<svg width="21" height="21" viewBox="0 0 21 21" fill="none" xmlns="http://www.w3.org/2000/svg">
<g clip-path="url(#clip0_2003_758)">
<path d="M15.75 10.5C12.8503 10.5 10.5 12.8503 10.5 15.75C10.5 18.6497 12.8503 21 15.75 21C18.6497 21 21 18.6497 21 15.75C21 12.8503 18.6497 10.5 15.75 10.5ZM18.543 15.9268L16.6066 17.7852C16.2111 18.1755 15.6861 18.3724 15.1602 18.3724C14.6344 18.3724 14.1076 18.1755 13.7051 17.7826L12.7146 16.8123C12.369 16.4736 12.3646 15.9197 12.7024 15.575C13.0401 15.2285 13.594 15.2241 13.9396 15.5627L14.9293 16.5322C15.0553 16.6565 15.2609 16.6539 15.386 16.5305L17.3311 14.6632C17.6785 14.329 18.2332 14.3386 18.5684 14.6886C18.9026 15.0369 18.8912 15.5916 18.543 15.9268ZM8.75 15.75C8.75 13.6587 9.667 11.7828 11.1204 10.5H4.375C3.89112 10.5 3.5 10.1089 3.5 9.625C3.5 9.14112 3.89112 8.75 4.375 8.75H11.375C11.8589 8.75 12.25 9.14112 12.25 9.625C12.25 9.646 12.2491 9.667 12.2474 9.688C13.2773 9.09125 14.4734 8.75 15.75 8.75V4.375C15.75 1.96263 13.7874 0 11.375 0H4.375C1.96263 0 0 1.96263 0 4.375V16.625C0 19.0374 1.96263 21 4.375 21H11.1204C9.667 19.7173 8.75 17.8412 8.75 15.75ZM4.375 4.375H11.375C11.8589 4.375 12.25 4.76613 12.25 5.25C12.25 5.73387 11.8589 6.125 11.375 6.125H4.375C3.89112 6.125 3.5 5.73387 3.5 5.25C3.5 4.76613 3.89112 4.375 4.375 4.375ZM6.125 14.875H4.375C3.89112 14.875 3.5 14.4839 3.5 14C3.5 13.5161 3.89112 13.125 4.375 13.125H6.125C6.60887 13.125 7 13.5161 7 14C7 14.4839 6.60887 14.875 6.125 14.875Z" fill="#ED3237"/>
</g>
<defs>
<clipPath id="clip0_2003_758">
<rect width="21" height="21" fill="white"/>
</clipPath>
</defs>
</svg>
