<svg width="21" height="21" viewBox="0 0 21 21" fill="none" xmlns="http://www.w3.org/2000/svg">
<g clip-path="url(#clip0_2003_766)">
<path d="M12.25 6.125V0.4025C13.0594 0.708168 13.7946 1.1824 14.4069 1.79375L17.4554 4.844C18.0674 5.45552 18.542 6.19053 18.8475 7H13.125C12.8929 7 12.6704 6.90781 12.5063 6.74372C12.3422 6.57962 12.25 6.35706 12.25 6.125ZM19.25 9.17437V16.625C19.2486 17.7849 18.7872 18.8969 17.9671 19.7171C17.1469 20.5372 16.0349 20.9986 14.875 21H6.125C4.9651 20.9986 3.85311 20.5372 3.03294 19.7171C2.21277 18.8969 1.75139 17.7849 1.75 16.625V4.375C1.75139 3.2151 2.21277 2.10311 3.03294 1.28294C3.85311 0.462772 4.9651 0.00138938 6.125 0L10.0756 0C10.2182 0 10.3591 0.011375 10.5 0.021V6.125C10.5 6.82119 10.7766 7.48887 11.2688 7.98116C11.7611 8.47344 12.4288 8.75 13.125 8.75H19.229C19.2386 8.89087 19.25 9.03175 19.25 9.17437ZM12.25 16.625C12.25 16.3929 12.1578 16.1704 11.9937 16.0063C11.8296 15.8422 11.6071 15.75 11.375 15.75H7C6.76793 15.75 6.54538 15.8422 6.38128 16.0063C6.21719 16.1704 6.125 16.3929 6.125 16.625C6.125 16.8571 6.21719 17.0796 6.38128 17.2437C6.54538 17.4078 6.76793 17.5 7 17.5H11.375C11.6071 17.5 11.8296 17.4078 11.9937 17.2437C12.1578 17.0796 12.25 16.8571 12.25 16.625ZM14.875 13.125C14.875 12.8929 14.7828 12.6704 14.6187 12.5063C14.4546 12.3422 14.2321 12.25 14 12.25H7C6.76793 12.25 6.54538 12.3422 6.38128 12.5063C6.21719 12.6704 6.125 12.8929 6.125 13.125C6.125 13.3571 6.21719 13.5796 6.38128 13.7437C6.54538 13.9078 6.76793 14 7 14H14C14.2321 14 14.4546 13.9078 14.6187 13.7437C14.7828 13.5796 14.875 13.3571 14.875 13.125Z" fill="#ED3237"/>
</g>
<defs>
<clipPath id="clip0_2003_766">
<rect width="21" height="21" fill="white"/>
</clipPath>
</defs>
</svg>
