<svg width="21" height="21" viewBox="0 0 21 21" fill="none" xmlns="http://www.w3.org/2000/svg">
<g clip-path="url(#clip0_2003_750)">
<path d="M13.125 15.75H0V3.5C0 2.80381 0.276562 2.13613 0.768845 1.64384C1.26113 1.15156 1.92881 0.875 2.625 0.875H10.5C11.1962 0.875 11.8639 1.15156 12.3562 1.64384C12.8484 2.13613 13.125 2.80381 13.125 3.5V15.75ZM14.875 15.75H21V11.375H14.875V15.75ZM16.625 4.375H14.875V9.625H21V8.75C20.9986 7.5901 20.5372 6.47811 19.7171 5.65794C18.8969 4.83777 17.7849 4.37639 16.625 4.375ZM2.67575 17.5C2.6437 17.6437 2.62669 17.7903 2.625 17.9375C2.625 18.5177 2.85547 19.0741 3.2657 19.4843C3.67594 19.8945 4.23234 20.125 4.8125 20.125C5.39266 20.125 5.94906 19.8945 6.3593 19.4843C6.76953 19.0741 7 18.5177 7 17.9375C6.99831 17.7903 6.9813 17.6437 6.94925 17.5H2.67575ZM14.9258 17.5C14.8937 17.6437 14.8767 17.7903 14.875 17.9375C14.875 18.5177 15.1055 19.0741 15.5157 19.4843C15.9259 19.8945 16.4823 20.125 17.0625 20.125C17.6427 20.125 18.1991 19.8945 18.6093 19.4843C19.0195 19.0741 19.25 18.5177 19.25 17.9375C19.2483 17.7903 19.2313 17.6437 19.1992 17.5H14.9258Z" fill="#ED3237"/>
</g>
<defs>
<clipPath id="clip0_2003_750">
<rect width="21" height="21" fill="white"/>
</clipPath>
</defs>
</svg>
