<?xml version="1.0" encoding="UTF-8"?>
<svg xmlns="http://www.w3.org/2000/svg" xmlns:xlink="http://www.w3.org/1999/xlink" viewBox="0 0 483.47 108.42">
  <defs>
    <style>
      .cls-1 {
        fill: url(#linear-gradient);
      }

      .cls-1, .cls-2, .cls-3, .cls-4, .cls-5, .cls-6, .cls-7 {
        stroke-width: 0px;
      }

      .cls-2 {
        mix-blend-mode: lighten;
        opacity: .2;
      }

      .cls-2, .cls-3, .cls-7 {
        fill: #fff;
      }

      .cls-3 {
        fill-rule: evenodd;
      }

      .cls-8 {
        isolation: isolate;
      }

      .cls-4 {
        fill: #f89820;
      }

      .cls-5 {
        fill: #79b643;
      }

      .cls-6 {
        fill: #30c4f2;
      }
    </style>
    <linearGradient id="linear-gradient" x1="427.89" y1="115.2" x2="389.56" y2="48.81" gradientUnits="userSpaceOnUse">
      <stop offset=".23" stop-color="#8dc63f"/>
      <stop offset=".39" stop-color="#6dba40"/>
      <stop offset=".81" stop-color="#1f9f42"/>
      <stop offset="1" stop-color="#009444"/>
    </linearGradient>
  </defs>
  <g class="cls-8">
    <g id="Layer_2" data-name="Layer 2">
      <g id="Layer_1-2" data-name="Layer 1">
        <g>
          <path id="field" class="cls-1" d="m406.39,74.38c-2.6.09-5.21.2-7.81.36-1.19,1.45-2.5,2.77-3.93,3.93-.31.25-.63.49-.95.73,5.57-.39,11.16-.6,16.76-.63-1.5-1.33-2.86-2.8-4.07-4.4Zm-60.02,2.43c-5.09,1.69-10.1,3.56-14.98,5.59,1.25.02,2.49.04,3.73.07,4.45-1.36,8.94-2.58,13.46-3.7-.77-.61-1.5-1.27-2.21-1.96Zm56.26-8.65c-.4.89-.84,1.75-1.31,2.58.87-.05,1.74-.09,2.61-.13-.46-.8-.89-1.62-1.3-2.46Zm-56.25,14.83c3.97.26,7.88.63,11.74,1.05-1.97-.71-3.84-1.59-5.62-2.62-2.05.5-4.09,1.02-6.12,1.57Zm113.15-12.98c-.42.76-.85,1.52-1.31,2.24-.17.28-.37.55-.55.82,7,.9,14,2.01,20.97,3.3,1.1-.63,2.21-1.25,3.32-1.85-7.41-1.76-14.91-3.27-22.44-4.52Zm-27.57,16.31c-.1,0-.21,0-.32,0-5.63.05-10.64-1.17-14.94-3.33-10.69-.2-21.4.19-32.15,1.23-3.45,1.19-7.08,1.85-10.75,2.04,3.74.65,7.43,1.35,11.04,2.15,24.04-2.16,47.93-.71,71.61,3.5,1.89-1.59,3.81-3.13,5.78-4.63-6.53-1.09-13.05-1.98-19.57-2.67-3.25,1.1-6.82,1.72-10.7,1.72Zm17.5-5.05c5.77.75,11.54,1.65,17.29,2.7,2.33-1.64,4.71-3.22,7.14-4.74-6.3-1.09-12.59-2.01-18.87-2.75-1.63,1.81-3.49,3.42-5.56,4.79Zm-51.22,10.53c4.5,1.29,8.86,2.7,13.07,4.22,12.16.45,24.24,1.83,36.24,3.99,1.53-1.51,3.1-2.99,4.7-4.43-17.96-2.99-35.9-4.35-54.01-3.78Zm39.19,16.23c.74.13,1.48.25,2.22.38,1.3-1.49,2.63-2.96,3.99-4.4-6.3-1.08-12.61-1.94-18.96-2.55,4.49,2.05,8.74,4.25,12.75,6.57Z"/>
          <path class="cls-4" d="m473.06,17.58l.92-5.28c.06-.32.1-.64.1-.96,0-.86-.38-1.62-1.58-1.62-1.52,0-2.4,1.3-2.64,2.64l-.92,5.22h-2.34l2.66-15.12h2.36l-1.22,6.88h.04c.52-.84,1.54-1.62,2.96-1.62,2.12,0,3.14,1.36,3.14,2.98,0,.3-.02.6-.08.9l-1.06,5.98h-2.34Zm-13.3-7.7l.34-1.9h1.66l.48-2.8h2.32l-.48,2.8h2.16l-.34,1.9h-2.12l-.84,4.52c-.04.2-.06.4-.06.56,0,.7.46.92,1.14.92.32,0,.64-.06.9-.14l-.14,1.78c-.4.16-1,.26-1.46.26-2.02,0-2.8-.9-2.8-2.22,0-.36.04-.84.12-1.22l.82-4.46h-1.7Z"/>
          <path id="_50" data-name="50" class="cls-4" d="m431.64,82.82c-21.51,0-29.74-18.62-29.74-40.12s8.24-39.7,29.74-39.7,29.53,18.3,29.53,39.7-8.13,40.12-29.53,40.12Zm0-64.63c-9.52,0-11.34,14.98-11.34,24.5s1.82,24.72,11.34,24.72,11.13-14.98,11.13-24.72-1.71-24.5-11.13-24.5Zm-60.03,64.63c-13.8,0-25.25-7.28-28.78-19.26l16.37-5.03c1.6,5.24,6.31,9.1,12.2,9.1s11.34-3.75,11.34-11.02c0-8.99-8.13-11.56-15.52-11.56-5.35,0-13.16,1.39-18.51,3.32l1.82-43.33h46.44v15.41h-30.49l-.64,11.98c2.25-.54,5.35-.75,7.6-.75,15.19,0,27.39,8.13,27.39,24.07,0,18.4-14.34,27.07-29.21,27.07Z"/>
          <path id="pattern_on_50" data-name="pattern on 50" class="cls-2" d="m379.55,15.38c-.32-.26-.53-.44-.62-.55h-.25c-.3.29-1.37,1.29-3.19,2.98-1.08,1-1.96,1.88-2.64,2.63h2.68c1.13-1.2,2.22-2.33,3.26-3.36h.14c1.3,1.42,2.31,2.52,3.05,3.36h2.65c-1.48-1.51-2.96-3-4.48-4.46-.11-.17-.31-.37-.6-.6Zm-15.76,52.27l1.42-1.35v-.21l-.08-.1c-.63-.36-1.22-.76-1.77-1.22l-1.18,1.2v.12c.71.69,1.25,1.21,1.6,1.56Zm20.78-34.31c-.3-.1-.6-.19-.9-.28.01.04.03.08.04.12.32,1.02.61,1.81.86,2.37v-2.22Zm-25.86,28.64c.44-.47.88-.93,1.32-1.39-.17-.33-.33-.68-.46-1.03l-.88-.02-2.68,2.69.04,2.3.44-.48c.66-.53,1.4-1.22,2.23-2.07Zm26.04-8.76c-.19.03-.39.07-.58.1-.51.53-1.03,1.05-1.54,1.58.07.54.11,1.1.11,1.69,0,.31-.02.6-.04.89.29-.28.64-.66,1.05-1.16.5-.63.85-1.04,1.06-1.25.02-.26.01-.64-.02-1.13-.02-.29-.03-.52-.03-.73Zm-21.93,18.42c.47.42.83.68,1.08.79,1.61-1.41,3.32-3.1,5.12-5.04-.72-.13-1.41-.33-2.08-.57l-.39.43c-.43.36-.89.78-1.38,1.28-.11.11-.55.56-1.3,1.34-.04,0-.09,0-.15.02-.06.02-.1.03-.12.03-.04,0-.07-.02-.09-.05l-.95-.99c-.36-.31-.79-.73-1.29-1.25-.42-.45-.85-.9-1.28-1.34l.04-.27c.75-.81,1.48-1.57,2.19-2.3-.42-.44-.8-.92-1.16-1.41-.11.11-.22.21-.34.32-1.3,1.21-2.32,2.23-3.04,3.07-.02.04-.07.11-.17.2-.1.09-.14.17-.14.24,2.33,2.51,4.15,4.35,5.46,5.51Zm88.04-3.88h-.08s-.05.02-.06.05c-.75.76-1.5,1.53-2.24,2.29-.85.89-1.54,1.7-2.07,2.41,1.18,0,1.89.01,2.11.04l.24-.08c.3-.28.67-.68,1.11-1.21.5-.62.86-1.04,1.06-1.25.02-.26,0-.64-.02-1.13-.03-.49-.04-.87-.03-1.13Zm-3.42,9.03c-.47.41-1.02.84-1.66,1.3-.35.26-.92.67-1.72,1.21h-.22c-.11-.18-.14-.37-.09-.56.96-1.72,1.68-2.87,2.15-3.44-.57-.28-1.16-.52-1.76-.72-.1.02-.25,0-.43-.05-.18-.05-.3-.08-.36-.08-.11,0-.2.04-.26.13-.06.42-.15,1.06-.27,1.9-.12.84-.21,1.48-.27,1.9-.4.15-.63.22-.69.22-.11,0-.2-.03-.27-.09-.1-.52-.17-1.15-.22-1.89-.04-.62-.09-1.24-.13-1.86l-.13-.13c-.64-.04-1.36.13-2.16.53,0,0-.16.09-.46.26-.19.1-.3.22-.34.35.1.12.5.61,1.21,1.47.5.59.86,1.1,1.08,1.51-.08.02-.16.09-.23.23-.07.13-.13.2-.18.2-.04,0-.09-.02-.14-.05-1.29-.92-2.27-1.71-2.96-2.36-.22.23-.43.55-.61.98-.16.36-.31.71-.46,1.07l-.04.38c.82.37,1.44.61,1.85.72.13.08.42.18.86.3.36.11.64.25.82.4.02.21-.03.39-.13.53-1.12-.06-1.96-.1-2.52-.13-.1,0-.24-.04-.42-.1-.19-.06-.33-.08-.42-.08-.13,0-.25.04-.35.13,0,.58.07,1.11.19,1.58,1.79-.22,3.48-.58,5.06-1.08.01-.24.08-.51.22-.8.22-.43.59-.69,1.11-.75.18.06.37.12.56.18.22.09.35.22.39.39.04.03.07.06.1.09,1.75-.75,3.36-1.67,4.83-2.76-.05-.1-.1-.22-.15-.37-.1-.32-.23-.54-.38-.67Zm-68.77-57.18h-.21l-.8.82h1.65l-.64-.82Zm3.1,22.98c.93-.21,1.86-.39,2.8-.56l.03-5.29c-.04-.47-.05-.83-.04-1.07-3.26,0-5.71-.02-7.37-.05-.07,0-.1-.03-.1-.06,0-.02,0-.05.03-.09.02-.04.03-.07.03-.1,0-.02,0-.04-.01-.05.19-.41.47-1.09.83-2.03.2-.5.37-.93.53-1.3-.98-.13-1.99-.22-3-.27.13.37.32.91.6,1.67.3.87.52,1.59.65,2.16-.22.02-.46.03-.73.03s-.72-.02-1.34-.05c-.58-.03-1.02-.03-1.32-.03-.02-.1,0-.22.08-.36.07-.15.1-.26.1-.34.09-.3.29-.73.61-1.31.32-.58.52-1.04.61-1.38.01-.11.07-.25.15-.42-.49-.02-.98-.03-1.48-.03-.11,0-.22,0-.33,0,0,1.02.02,2.32.06,3.94-.04.05-.05.11-.05.18,0,.04.02.12.05.24.04.11.05.2.04.27,0,.16,0,1.13,0,2.93,0,1.19-.03,2.17-.13,2.93-.04.22.04.33.22.33.05,0,.16-.02.31-.05.12-.02.21-.02.26-.01,1.16.05,2.94.1,5.35.13.95.01,1.81.03,2.57.05Zm2.53-5.2c-.62,1.44-1.09,2.53-1.41,3.27-.11.41-.26.67-.46.79-.1-.18-.17-.31-.18-.41-.82-2.12-1.29-3.37-1.42-3.74l3.46.09Zm-6.37,2.24c-.39-.89-.7-1.55-.92-1.95-.1.07-.18.18-.23.34-.05.16-.1.3-.14.45-.04.14-.09.29-.14.43-.05.15-.12.26-.2.34-.3.91-.51,1.6-.65,2.06,0,.05-.02.16-.09.31v-.34c-.33-.45-.65-.99-.99-1.62,0,0-.29-.56-.86-1.67-.09-.29-.14-.52-.16-.67,3.12.02,5.46.03,7.04.03v.05c-.18.37-.44,1.08-.77,2.14-.29.92-.6,1.62-.94,2.08-.24-.44-.56-1.1-.94-1.97Zm1.63-7.49s.02.06.03.09c.17.64.29,1.09.39,1.34.28.88.48,1.54.6,1.98.02,0,.04.01.05.01.04,0,.07-.03.1-.08.03-.05.06-.09.08-.11-.02-.12.03-.29.13-.49.1-.21.16-.37.17-.48.1-.09.23-.25.37-.49.14-.24.26-.4.36-.49l-.03-.03c.1-.26.19-.52.29-.76-.83-.2-1.68-.36-2.54-.5Zm66.19,13.58c.17.43.44,1.23.81,2.4.04.13.08.24.12.36.25.04.5.09.75.13v-3.79c-.24-.02-.57,0-.99.03-.42.04-.73.05-.95.05-1.1-.07-2-.13-2.74-.16-.02.96-.07,1.96-.13,2.98.72.14,1.44.28,2.15.41.36-.96.69-1.77,1-2.4Zm-7.08,26.78h1.59l.08-.08c-1.09-1.21-2.64-2.81-4.64-4.78-.02-.12-.1-.17-.23-.16v2.18l1.91,2.08c.24.47.67.72,1.29.75Zm-11.35-6.37c.02.07.03.14.03.21,0,.09-.02.19-.05.3-.17.24-.35.49-.53.74-.22.3-.47.45-.76.43-.21.04-.43-.02-.65-.17-.19-.13-.38-.26-.57-.4-.12-.18-.18-.39-.18-.61,0-.26.08-.55.23-.87.22-.43.59-.68,1.11-.75-1.24-1.25-2.22-2.91-3-4.82-.05.02-.09.04-.14.06,0,0-.16.1-.45.26-.19.1-.3.22-.34.35.1.12.5.61,1.21,1.47.5.59.86,1.09,1.08,1.51-.09.02-.16.09-.23.23-.07.13-.13.2-.18.2-.04,0-.09-.02-.14-.05-1.29-.92-2.27-1.71-2.96-2.36-.23.23-.43.55-.61.98-.16.36-.31.71-.45,1.07l-.04.38c.83.37,1.44.61,1.85.72.13.08.42.18.86.3.36.11.64.25.82.4.02.21-.03.38-.13.53-1.12-.06-1.96-.1-2.51-.13-.1,0-.24-.04-.43-.1-.19-.06-.33-.08-.42-.08-.13,0-.25.04-.35.13,0,.96.16,1.76.48,2.42.51-.09,1.1-.29,1.8-.6.99-.45,1.56-.71,1.72-.77.05.04.08.1.08.16,0,.03,0,.07-.02.12-.01.05-.02.09-.02.12,0,.07.04.13.12.18-.76.56-1.34.97-1.73,1.22-.07.08-.25.21-.55.4-.24.15-.39.29-.46.44.53.91,1.26,1.51,2.2,1.8.94-1.57,1.52-2.53,1.76-2.87.22,0,.42.07.61.22-.45,1.45-.77,2.54-.96,3.27.24.17.43.27.57.31.11,0,.29.01.55.03.26.02.46.03.59.03.43,0,.73-.1.93-.29-.29-1.5-.43-2.27-.44-2.29,0-.07-.02-.21-.07-.42-.05-.21-.07-.37-.07-.48,0-.21.08-.35.22-.42.06.02.14,0,.24-.05.1-.05.16-.08.19-.08.06,0,.11.04.16.13.22.4.46.98.74,1.75.31.84.55,1.43.7,1.77.92-.43,1.71-1.09,2.37-1.98-1.41-.96-2.46-1.7-3.15-2.2.08-.24.15-.42.22-.54,1.68.6,2.92,1.07,3.74,1.42.2-.3.35-.68.46-1.16.02-.12.04-.24.06-.35-.25.02-.5.04-.76.04-1.66,0-3.09-.47-4.32-1.27Zm28-36.44c-.7-.03-1.22-.04-1.56-.04-.47,0-.88.02-1.25.05-.03,0-.06.01-.09.01s-.08-.01-.14-.03c-.06-.02-.1-.03-.12-.03-.05,0-.1.03-.14.08-.05.95-.04,2.91.03,5.88-.04.05-.05.11-.05.18,0,.04.02.12.05.24.03.11.05.2.04.27,0,.16,0,1.13,0,2.93,0,1.19-.03,2.17-.13,2.93-.04.22.04.33.22.33.05,0,.16-.02.31-.05.12-.02.21-.02.26-.01,1.15.05,2.94.1,5.35.13,1.18.02,2.2.04,3.08.06,0-.52,0-1.04-.02-1.55,0,0,0-.01,0-.02-.82-2.12-1.29-3.37-1.42-3.74l1.26.03c-.04-.56-.08-1.12-.13-1.67-2,0-3.59-.02-4.78-.04-.07,0-.1-.03-.1-.06,0-.02.01-.05.03-.09.02-.04.03-.07.03-.1,0-.02,0-.04-.01-.05.19-.41.47-1.09.83-2.03.35-.89.64-1.56.87-2.03,0-.13.1-.25.31-.35.13.3.27.75.43,1.33.16.64.29,1.09.39,1.34.28.88.48,1.54.6,1.98.02,0,.03.01.05.01.04,0,.07-.03.1-.08.03-.05.06-.09.08-.11-.02-.12.03-.29.13-.49.1-.21.16-.37.17-.48.11-.09.23-.25.37-.49.1-.17.18-.28.26-.38-.15-1.25-.34-2.47-.56-3.67-1.59-.1-2.66-.14-3.19-.14-.34,0-.86-.01-1.55-.04Zm-3,5.45c.07-.15.1-.26.1-.34.09-.3.29-.73.61-1.31.32-.58.52-1.04.61-1.38.02-.15.1-.35.24-.6.14-.26.22-.46.23-.61.07.15.11.27.13.38.08.26.33.96.74,2.11.3.87.52,1.59.65,2.16-.22.02-.46.03-.73.03s-.72-.02-1.34-.05c-.58-.03-1.02-.03-1.31-.03-.02-.1,0-.22.08-.36Zm7.14,2.19v.05c-.18.37-.44,1.08-.77,2.14-.29.92-.6,1.62-.94,2.08-.24-.44-.56-1.1-.94-1.97-.39-.89-.7-1.55-.92-1.95-.1.07-.18.18-.23.34-.05.16-.1.3-.14.45-.04.14-.09.29-.14.43-.05.15-.11.26-.2.34-.3.91-.51,1.6-.65,2.06,0,.05-.02.16-.09.31v-.34c-.33-.45-.65-.99-.99-1.62,0,0-.29-.56-.86-1.67-.09-.29-.14-.52-.16-.67,3.12.02,5.46.03,7.04.03Zm-.6-9.65c.1,0,.29.01.55.03.08,0,.14,0,.21.01-.2-.9-.43-1.77-.67-2.64-.29.96-.51,1.72-.66,2.28.24.16.43.27.57.31Zm-4.4-6.38c-.1,0-.24-.04-.42-.1-.19-.06-.33-.08-.42-.08-.13,0-.25.04-.35.13,0,.96.16,1.76.48,2.42.5-.09,1.1-.29,1.8-.6.99-.45,1.56-.71,1.72-.77.05.04.08.1.08.16,0,.03,0,.07-.02.12-.01.05-.02.09-.02.12,0,.07.04.13.12.18-.76.57-1.34.97-1.73,1.23-.07.08-.25.21-.55.4-.24.15-.4.3-.46.44.53.91,1.27,1.51,2.2,1.8.9-1.51,1.47-2.44,1.72-2.82-.59-1.88-1.29-3.66-2.09-5.35-.75-.57-1.37-1.08-1.84-1.53-.23.23-.43.55-.61.98-.16.36-.31.71-.46,1.07l-.04.38c.82.37,1.44.61,1.85.72.13.08.42.18.86.3.36.11.64.25.82.4.02.21-.03.39-.13.53-1.12-.06-1.96-.1-2.51-.13Zm-39.41,36.24c.3-.28.67-.68,1.11-1.21.5-.63.86-1.04,1.06-1.25,0-.04,0-.11,0-.16-.62-.12-1.25-.22-1.87-.34-.19.2-.38.39-.57.59-.85.89-1.54,1.7-2.07,2.41,1.18,0,1.88.01,2.11.04l.23-.08Zm42.88-8.05l-.57.58c.45.05.88.08,1.33.13l-.55-.7h-.21Zm-2.88-4.85l-2.14-.04-2.68,2.68.03,1.8c.14.02.28.05.41.07l.04-.04c.66-.53,1.4-1.22,2.23-2.07.7-.75,1.41-1.49,2.11-2.23v-.17Zm-8.6-29.91s-.12.04-.31.04c-.14,0-.2.07-.17.2l3.6,3.88c.06.03.14.09.23.19.1.1.16.16.2.18.06-.17.09-.37.09-.58,0-.07-.03-.36-.08-.86-.03-.34-.01-.62.04-.83-.22-.38-.52-.72-.88-1.01-.36-.29-.64-.51-.82-.66-.15-.36-.45-.53-.9-.53h-.99Zm-36.82,40.2s-.09,0-.15.02c-.06.02-.1.03-.12.03-.03,0-.06-.02-.09-.05l-.95-.99c-.18-.16-.39-.35-.61-.57-.96-.13-1.91-.25-2.86-.35,1.53,1.6,2.78,2.83,3.75,3.69.47.42.83.68,1.08.79,1.1-.97,2.26-2.08,3.46-3.3-.8-.13-1.61-.27-2.4-.39-.22.22-.57.59-1.09,1.12Zm43.1-42.46c-.73-.91-1.5-1.76-2.33-2.56h0s1.92,2.09,1.92,2.09c.1.2.25.35.42.47Zm2.04,53.53c-.19-.06-.33-.08-.42-.08-.13,0-.25.04-.35.13,0,.96.16,1.76.48,2.42.45-.08.98-.26,1.58-.51.29-.58.57-1.17.84-1.77-.72-.04-1.29-.07-1.7-.09-.1,0-.24-.04-.42-.1Zm-90.63-29.59v-.21l-1.3-1.65h-.21l-1.51,1.54v.12c.71.69,1.25,1.21,1.6,1.56l1.42-1.36Zm77.57-6.58c-.06,0-.12,0-.18,0,.2.89.37,1.8.51,2.72-.02-.24-.05-.47-.07-.73-.04-.62-.09-1.24-.13-1.86l-.13-.13Zm-85.33-2.28c.05,0,.16-.02.31-.05.12-.02.21-.02.26-.01,1.16.05,2.94.1,5.35.13,1.5.02,2.76.05,3.78.07l.13-2.48c-.08.18-.15.36-.22.51-.1.41-.26.67-.45.79-.11-.18-.17-.31-.18-.41-.82-2.12-1.29-3.37-1.42-3.74l2.43.06.09-1.7c-2.66,0-4.72-.02-6.16-.05-.07,0-.1-.03-.1-.07,0-.02.01-.05.03-.09.02-.04.03-.07.03-.1,0-.02,0-.03-.01-.05.19-.41.47-1.09.83-2.03.35-.89.64-1.56.87-2.03,0-.13.1-.25.31-.35.13.3.27.75.43,1.33.16.64.3,1.09.39,1.34.28.88.48,1.54.6,1.98.02,0,.04.01.05.01.04,0,.07-.03.1-.08.03-.05.06-.09.08-.1-.02-.12.03-.29.13-.5.1-.21.16-.37.17-.48.1-.09.23-.25.37-.49.14-.24.26-.4.36-.49l-.03-.03c.39-1.06.75-1.93,1.08-2.62.17.43.44,1.23.81,2.4.29.91.55,1.64.78,2.19h.08v-5.48c-.24-.02-.57,0-.99.03-.42.04-.73.05-.95.05-2.42-.16-3.96-.23-4.64-.23-.34,0-.86-.01-1.55-.04-.7-.03-1.22-.04-1.56-.04-.47,0-.89.02-1.25.05-.03,0-.06.01-.09.01s-.08-.01-.14-.03c-.06-.02-.1-.03-.12-.03-.05,0-.1.03-.14.08-.05.95-.04,2.9.03,5.88-.04.05-.05.11-.05.18,0,.04.02.12.05.23.03.11.05.2.04.27,0,.16,0,1.13,0,2.93,0,1.19-.04,2.17-.13,2.93-.04.22.04.33.22.33Zm7.3-5.16v.05c-.18.37-.44,1.08-.77,2.14-.29.92-.6,1.62-.94,2.09-.24-.44-.55-1.1-.94-1.97-.39-.9-.7-1.55-.93-1.95-.1.07-.18.18-.23.34s-.1.3-.14.45c-.04.14-.09.29-.14.43-.05.15-.12.26-.2.34-.29.91-.51,1.6-.65,2.06,0,.05-.02.16-.09.31v-.34c-.33-.45-.65-.99-.99-1.62,0,0-.29-.57-.86-1.67-.09-.29-.14-.52-.15-.67,3.12.02,5.46.03,7.04.03Zm-7.14-2.19c.07-.15.1-.26.1-.34.09-.29.29-.73.61-1.31.32-.58.52-1.04.61-1.37.02-.15.1-.35.24-.61.14-.26.22-.46.23-.61.07.15.11.27.13.38.08.26.33.96.74,2.11.3.87.52,1.59.65,2.16-.22.02-.46.03-.73.03s-.72-.02-1.34-.05c-.58-.03-1.02-.04-1.31-.03-.02-.1,0-.22.08-.36Zm13.84,19.94c.02-.26.01-.64-.02-1.13-.03-.49-.04-.87-.03-1.13h-.08s-.05.02-.07.05c-.75.76-1.49,1.53-2.24,2.29-.85.9-1.54,1.7-2.07,2.41,1.18,0,1.89.01,2.11.04l.23-.08c.3-.28.67-.68,1.11-1.21.51-.63.86-1.04,1.06-1.25Zm.93,5.19c.37.05.73.14,1.09.21.59-.27,1.18-.52,1.78-.75v-.15l-2.14-.04-.73.73Zm-9.55-3.56c.47.42.83.68,1.08.8,1.81-1.59,3.73-3.51,5.78-5.76.37-.41.59-.72.65-.95-1.63-1.68-3.29-3.33-4.96-4.95-.11-.16-.31-.36-.6-.6-.32-.26-.53-.44-.62-.55h-.25c-.3.29-1.37,1.29-3.19,2.98-1.3,1.21-2.32,2.23-3.04,3.07-.02.04-.07.11-.17.2-.1.09-.14.17-.14.24,2.33,2.51,4.15,4.35,5.46,5.51Zm-2.8-5.63c1.4-1.5,2.73-2.88,3.99-4.13h.14c1.54,1.68,2.69,2.94,3.45,3.81.02.25-.1.53-.38.82l-.68.74c-.43.36-.89.78-1.38,1.28-.11.11-.55.56-1.3,1.34-.04,0-.09,0-.15.02-.06.02-.1.03-.12.03-.04,0-.06-.02-.09-.05l-.95-.99c-.36-.31-.79-.73-1.29-1.25-.42-.45-.85-.9-1.28-1.34l.04-.27Zm85.72,30.15v-.21l-1.3-1.65h-.21l-1.51,1.54v.12c.71.69,1.25,1.21,1.6,1.56l1.42-1.35Zm-2.38,5.35c.47.42.83.68,1.08.79,1.81-1.59,3.74-3.51,5.79-5.76.37-.41.59-.73.65-.95-1.63-1.68-3.29-3.33-4.96-4.95-.1-.14-.27-.31-.49-.5-.47-.08-.94-.16-1.41-.25-.52.49-1.44,1.35-2.77,2.58-1.3,1.21-2.31,2.23-3.04,3.07-.02.04-.07.11-.17.2-.09.09-.14.17-.14.24,2.33,2.51,4.15,4.35,5.46,5.51Zm-2.8-5.63c1.4-1.5,2.73-2.88,3.99-4.13h.14c1.54,1.68,2.69,2.95,3.45,3.8.03.25-.1.53-.38.82l-.68.74c-.43.36-.89.78-1.38,1.28-.11.11-.55.56-1.3,1.34-.04,0-.09,0-.15.02-.06.02-.1.03-.12.03-.04,0-.07-.02-.09-.05l-.95-.99c-.36-.31-.79-.73-1.29-1.25-.43-.45-.85-.9-1.28-1.34l.04-.27Zm18.36-3.69c.14.17.24.31.36.46.07-.2.12-.41.18-.61-.24-.02-.48-.04-.72-.06.06.07.11.13.17.21Zm-72.95.73c.32,1.02.61,1.81.86,2.37v-5.67c-.24-.02-.57,0-.99.03-.41.04-.73.05-.95.04-.53-.04-1.02-.06-1.46-.09-.29,1.18-.76,2.24-1.36,3.16.07.23.12.41.17.54.28.88.48,1.54.6,1.98.02,0,.04.01.05.01.03,0,.07-.03.1-.08.03-.05.06-.09.08-.1-.02-.12.03-.29.13-.5.11-.21.16-.37.17-.48.1-.09.23-.25.36-.49.14-.24.26-.4.37-.49l-.03-.03c.39-1.06.75-1.93,1.08-2.62.17.43.44,1.23.81,2.4Zm70.49-1.17c-.22.22-.42.54-.59.95-.16.36-.31.71-.46,1.07l-.04.38c.83.37,1.44.61,1.85.72.13.08.42.18.86.3.08.03.15.06.22.08.21-.51.41-1.03.61-1.55-1.01-.74-1.81-1.39-2.39-1.94-.02,0-.04,0-.05,0Zm-100.42-27.23l.44-.48c.66-.53,1.4-1.22,2.23-2.07.7-.75,1.41-1.49,2.11-2.23v-.17l-2.14-.04-2.68,2.69.04,2.31Zm95.05-10.58c-.03-.49-.04-.87-.03-1.13h-.08s-.05.02-.07.05c-.75.76-1.49,1.53-2.24,2.29-.85.89-1.54,1.7-2.07,2.41,1.18,0,1.89.01,2.11.04l.23-.08c.3-.28.67-.68,1.11-1.21.51-.62.86-1.04,1.05-1.25.02-.26.01-.64-.02-1.13Zm-6.22-2.81l-1.3-1.65h-.21l-1.51,1.54v.12c.71.69,1.25,1.21,1.6,1.56l1.42-1.36v-.21Zm7.12,40.48c-.1-.17-.22-.32-.34-.47-.91-.13-1.82-.27-2.73-.41l2.59,2.8c.06.03.14.09.24.19.1.1.16.16.19.18.06-.17.09-.37.09-.58,0-.07-.03-.36-.08-.86-.03-.34-.01-.62.04-.83Zm-2.64-39.88c.37-.41.59-.73.65-.95-1.63-1.68-3.29-3.33-4.96-4.95-.11-.17-.31-.37-.6-.6-.32-.26-.53-.44-.62-.55h-.25c-.3.29-1.37,1.29-3.19,2.98-.98.9-1.79,1.71-2.44,2.41,1.52,1.38,2.67,3.37,3.53,5.68.37.35.71.67,1.02.95.47.42.83.68,1.08.79,1.81-1.59,3.74-3.51,5.79-5.76Zm-5.97,3.21c-.06.02-.1.03-.12.03-.04,0-.06-.02-.09-.05l-.95-.99c-.35-.31-.79-.73-1.29-1.25-.43-.45-.85-.9-1.28-1.34l.04-.27c1.4-1.5,2.73-2.88,3.99-4.13h.14c1.54,1.68,2.69,2.95,3.45,3.8.03.25-.1.53-.38.82l-.68.74c-.43.36-.89.78-1.38,1.28-.11.11-.55.56-1.3,1.34-.04,0-.09,0-.15.02Zm6.33,13.93c.2-.29.35-.68.46-1.16.07-.43.14-.85.21-1.26l-.09-.09c-.17.02-.36.03-.56.03-.27,0-.68-.03-1.25-.09-.56-.06-.99-.09-1.27-.09-.27,0-.52.02-.75.05l-.12-.07v-.13c0-.07-.02-.17-.07-.3-.04-.13-.07-.23-.07-.29s.02-.12.05-.17c.49-.15,1.12-.29,1.89-.42,1.19-.21,1.83-.32,1.91-.34.03-.09.05-.18.05-.29,0-.15-.04-.33-.1-.55-.1-.3-.15-.48-.17-.53-.12-.12-.23-.34-.34-.66-.1-.32-.23-.54-.38-.67-.47.41-1.02.84-1.66,1.3-.35.26-.92.67-1.72,1.21h-.22c-.11-.18-.14-.37-.09-.56.96-1.72,1.68-2.87,2.15-3.44-.57-.28-1.16-.52-1.76-.72-.1.02-.25,0-.43-.05-.18-.05-.3-.08-.37-.08-.11,0-.2.04-.26.13-.06.43-.15,1.06-.27,1.9-.12.84-.21,1.48-.27,1.9-.4.15-.63.22-.69.22-.11,0-.19-.03-.26-.09.07.49.12.98.17,1.48.1-.03.2-.06.31-.07.18.06.37.12.56.18.22.09.35.22.39.39.3.21.46.46.46.77,0,.1-.02.19-.05.3-.17.24-.35.49-.53.74-.22.3-.47.45-.76.43-.05,0-.09,0-.14,0,.1,1.66.15,3.27.15,4.75.03,0,.07,0,.1,0,.43,0,.73-.1.92-.29-.29-1.5-.43-2.27-.44-2.29,0-.07-.02-.21-.07-.42-.05-.21-.07-.37-.07-.48,0-.21.08-.35.22-.42.06.02.14,0,.23-.05.1-.05.16-.08.2-.08.06,0,.11.04.15.13.22.4.46.98.74,1.75.31.84.55,1.43.7,1.77.92-.43,1.71-1.09,2.37-1.98-1.41-.96-2.46-1.7-3.15-2.2.08-.24.15-.42.22-.54,1.68.6,2.92,1.07,3.74,1.42Zm-24.94-15.93c-.05.16-.1.3-.14.45-.04.14-.09.29-.14.43-.05.15-.12.26-.2.34-.29.91-.51,1.6-.65,2.06,0,.02,0,.05,0,.07.43-1.22.94-2.36,1.54-3.38-.06-.11-.11-.21-.16-.3-.1.07-.18.18-.23.34Zm35.31,22.16c-.32-.26-.53-.44-.62-.55h-.25c-.3.29-1.37,1.29-3.19,2.98-.72.67-1.34,1.28-1.89,1.83.8.11,1.59.22,2.38.32.97-1.02,1.91-1.99,2.8-2.88h.14c.99,1.08,1.81,1.98,2.48,2.72.07-.79.13-1.59.18-2.4-.48-.47-.95-.96-1.43-1.43-.11-.17-.31-.37-.6-.6Zm-37.4-15.55l-1.22-.02-2.68,2.69.04,2.31.44-.48c.66-.53,1.4-1.22,2.23-2.07.29-.31.59-.62.88-.93.1-.5.2-1,.31-1.49Zm-.81,4.62c-.55.55-1.03,1.06-1.41,1.51-.02.04-.08.11-.17.2-.1.09-.14.17-.14.24.49.53.95,1.02,1.39,1.48.08-1.13.19-2.28.33-3.44Zm-3.09,3.31v2.18l1.91,2.08c.15.29.38.49.68.61,0-.74.02-1.51.04-2.3-.71-.73-1.5-1.53-2.4-2.42-.02-.12-.09-.17-.23-.16Zm-22.75-21.29c0-.13.1-.25.31-.35.13.3.27.75.43,1.33.17.64.3,1.09.39,1.34.24.77.42,1.36.54,1.79h.29c0-.07.01-.17.04-.27v-5.24c-1.42-.08-2.38-.12-2.87-.12-.34,0-.86-.01-1.55-.04-.7-.03-1.22-.04-1.56-.04-.47,0-.89.02-1.25.05-.03,0-.06.01-.09.01s-.08-.01-.14-.03c-.06-.02-.1-.03-.12-.03-.05,0-.1.03-.14.08-.05.92-.04,2.8.02,5.64h.22c.01-.07.03-.14.07-.23.07-.15.1-.26.1-.34.09-.29.29-.73.61-1.31.32-.58.52-1.04.6-1.37.02-.15.1-.35.24-.61.14-.26.22-.46.23-.61.07.15.12.27.13.38.08.26.33.96.74,2.11.28.79.47,1.43.6,1.98h.45s0-.03-.01-.05c.19-.41.47-1.09.83-2.03.35-.89.64-1.56.87-2.03Zm44.45-1.38v-.17l-2.14-.04-2.68,2.68.02,1.35c.22.09.44.2.65.31.61-.51,1.29-1.14,2.03-1.91.71-.75,1.41-1.49,2.11-2.23Zm-90.07,18.47v.06s.02-.02.03-.03l-.03-.03Zm1.89-.22c.32,1.02.61,1.81.86,2.37v-5.67c-.24-.02-.57,0-.99.03-.42.04-.73.05-.95.05-.23-.02-.45-.03-.66-.04l-.15,3.48c.39-1.06.75-1.93,1.08-2.62.18.43.44,1.23.81,2.4Zm-2.77,30.26c.28.88.48,1.54.6,1.98.02,0,.03.01.05.01.04,0,.07-.03.1-.08.03-.05.06-.09.08-.1-.02-.12.03-.29.13-.5.1-.21.16-.37.17-.48.1-.09.23-.25.36-.49.14-.24.26-.4.37-.49l-.03-.03c.34-.91.65-1.67.94-2.31l-3.21.99c.02.05.03.09.04.15.17.64.3,1.09.39,1.34Zm3.33-38.06c-.8-.55-1.48-1.02-2.05-1.42l-.14,3.3c.84-.43,1.57-1.05,2.19-1.88Zm-2.94,19.69l-.07,1.62c.35-.56.64-.98.87-1.26-.26-.13-.53-.25-.8-.36Zm3.28-8.33c-.03-.47-.05-.83-.04-1.07-1.03,0-1.97,0-2.84,0l-.07,1.66,2.65.07c-.62,1.44-1.09,2.53-1.41,3.27-.1.41-.26.67-.46.79-.1-.18-.16-.31-.18-.41-.27-.69-.49-1.28-.69-1.79l-.14,3.34c1.32.03,2.36.06,3.13.09l.04-5.94Zm-2.24,11.21c.52-.17,1.07-.34,1.62-.49-.09-.24-.2-.43-.32-.54-.38.33-.82.68-1.3,1.04Zm1.99-41.09c-.04-.47-.05-.83-.04-1.07-.47,0-.91,0-1.34,0l-.07,1.69,1.15.03c-.55,1.26-.97,2.24-1.28,2.96l-.1,2.27c.64.02,1.18.04,1.63.06l.04-5.94Zm-1.78,8.52l-.03.71c.15-.22.29-.4.4-.55-.12-.06-.25-.11-.37-.17Zm2.95,50.03v-5.01l-1.58.48c.17.46.41,1.17.72,2.16.32,1.02.61,1.81.86,2.37Zm-.1-45.68c.03-.09.05-.18.05-.29,0-.15-.04-.33-.1-.55-.1-.3-.15-.48-.17-.53-.12-.12-.23-.34-.34-.66-.1-.32-.23-.54-.38-.67-.47.41-1.02.84-1.65,1.3-.11.08-.24.18-.39.29l-.07,1.67c.34-.08.71-.15,1.14-.22,1.19-.21,1.83-.32,1.92-.34Zm.1,3.17c.07-.43.14-.85.21-1.26l-.09-.09c-.17.02-.36.03-.56.03-.27,0-.68-.03-1.25-.09-.56-.06-.99-.09-1.27-.09-.09,0-.16.01-.25.02l-.07,1.57c1.21.44,2.16.81,2.82,1.09.2-.29.35-.68.46-1.16Zm4.63-10.15h1.59l.08-.08c-1.09-1.21-2.64-2.81-4.64-4.78-.02-.12-.09-.17-.23-.15v2.18l1.91,2.08c.24.47.67.72,1.29.75Zm13.72,55h-.08s-.05.02-.07.05c-.75.76-1.49,1.53-2.24,2.29-.85.89-1.54,1.7-2.07,2.41,1.18,0,1.88.01,2.11.04l.23-.08c.3-.28.67-.68,1.11-1.21.51-.62.86-1.04,1.06-1.25.02-.26.01-.64-.02-1.13-.03-.49-.04-.87-.03-1.13Zm12.79,10.36c-.12-.12-.24-.34-.34-.66-.1-.32-.23-.54-.38-.67-.47.41-1.02.84-1.65,1.3-.35.26-.92.67-1.72,1.21h-.22c-.11-.18-.14-.37-.09-.56.96-1.72,1.68-2.87,2.15-3.44-.57-.28-1.16-.52-1.76-.72-.1.02-.25,0-.43-.05-.18-.05-.3-.08-.37-.08-.11,0-.2.04-.26.13-.06.42-.15,1.06-.27,1.9-.12.84-.21,1.48-.27,1.9-.4.15-.63.22-.69.22-.11,0-.2-.03-.27-.09-.1-.52-.17-1.15-.22-1.89-.04-.62-.09-1.24-.13-1.86l-.13-.13c-.64-.04-1.36.13-2.16.53,0,0-.16.09-.46.26-.19.1-.3.22-.34.35.1.12.5.61,1.21,1.47.5.59.86,1.1,1.08,1.51-.09.02-.16.09-.23.23-.07.13-.13.2-.18.2-.04,0-.09-.02-.14-.05-1.28-.92-2.27-1.71-2.96-2.36-.22.23-.43.55-.61.98-.16.36-.31.71-.46,1.07l-.04.38c.83.37,1.44.61,1.85.72.13.08.42.18.86.3.37.11.64.25.82.4.02.21-.03.39-.13.53-1.12-.06-1.96-.1-2.51-.13-.1,0-.24-.04-.42-.1-.19-.06-.33-.08-.42-.08-.13,0-.25.04-.35.13,0,.68.09,1.29.25,1.82.74,0,1.48-.03,2.21-.08.87-.4,1.39-.63,1.54-.69.05.04.08.1.08.16,0,.03,0,.06-.02.12-.01.05-.02.09-.02.12,0,.06.03.11.09.15.53-.06,1.06-.13,1.59-.21-.1-.07-.2-.14-.29-.21-.12-.18-.18-.39-.18-.61,0-.26.08-.55.24-.87.22-.43.59-.69,1.11-.75.18.06.37.12.56.18.22.09.35.22.39.39.31.21.46.46.46.77,0,.1-.02.2-.05.3-.11.15-.22.3-.33.46,1.09-.23,2.17-.51,3.22-.84-.33-.03-.61-.05-.81-.05-.27,0-.52.02-.75.05l-.12-.07v-.13c0-.07-.02-.17-.06-.3-.04-.13-.07-.22-.07-.29s.02-.12.05-.17c.49-.15,1.12-.29,1.89-.42,1.19-.21,1.83-.32,1.92-.34.04-.09.05-.18.05-.29,0-.15-.03-.33-.1-.55-.1-.3-.15-.48-.17-.53Zm6.85-3.62c-.69-.03-1.21-.04-1.56-.04-.47,0-.89.02-1.25.05-.03,0-.06.01-.09.01s-.08-.01-.14-.03c-.06-.02-.1-.03-.12-.03-.05,0-.1.03-.14.08-.04.77-.04,2.24,0,4.37.34-.19.68-.38,1.01-.58v-.03c.33-.58.53-1.04.62-1.37.02-.15.1-.35.24-.61.14-.26.22-.46.23-.61.07.15.11.27.13.38.05.18.19.58.4,1.17,1.14-.81,2.21-1.7,3.2-2.69-.41-.02-.74-.03-.97-.03-.34,0-.86-.01-1.55-.04Zm-30.14,5.93c-.07,0-.1-.03-.1-.07,0-.02.01-.05.03-.08.02-.04.03-.07.03-.1,0-.02,0-.03-.01-.05.19-.41.47-1.09.83-2.03.35-.89.64-1.56.87-2.03,0-.13.1-.25.31-.35.13.3.27.75.43,1.33.17.64.3,1.09.39,1.34.28.88.48,1.54.6,1.98.02,0,.04.01.05.01.04,0,.07-.03.1-.08.03-.05.06-.09.08-.1-.02-.12.03-.29.13-.5.1-.21.16-.37.17-.48.1-.09.23-.25.37-.49.14-.24.26-.4.36-.49l-.03-.03c.39-1.06.75-1.93,1.08-2.62.17.44.44,1.23.81,2.4.32,1.02.61,1.81.86,2.37v-5.67c-.24-.02-.57,0-.99.03-.42.04-.73.05-.95.04-2.42-.16-3.96-.23-4.64-.23-.34,0-.86-.01-1.55-.04-.7-.03-1.22-.04-1.56-.04-.47,0-.88.02-1.25.05-.03,0-.06.01-.09.01s-.08-.01-.14-.03c-.06-.02-.1-.03-.12-.03-.05,0-.1.03-.14.08-.05.86-.04,2.56,0,5.08.12.06.23.12.35.18.02-.06.06-.14.06-.19.09-.29.29-.73.61-1.31.32-.58.52-1.04.61-1.37.02-.15.1-.35.24-.61.14-.26.22-.46.23-.61.07.15.11.27.13.38.08.26.33.96.74,2.11.3.87.52,1.59.65,2.16-.22.02-.46.03-.73.03-.25,0-.66-.02-1.22-.05,1.91.77,3.93,1.38,6.05,1.79,0,0,0-.02,0-.03l3.47.09c-.06.14-.12.27-.18.4.16.02.31.03.47.05v-1.1c-.03-.47-.04-.83-.03-1.07-3.26,0-5.71-.02-7.37-.05Zm17.62-14.93c-1.08.77-2.32,1.33-3.65,1.68,3.05.02,5.35.03,6.89.03v.05c-.18.37-.44,1.08-.77,2.14-.29.92-.6,1.62-.94,2.08-.24-.44-.56-1.1-.94-1.97-.39-.89-.7-1.55-.92-1.95-.11.07-.18.18-.23.34-.05.16-.1.3-.14.45-.04.14-.09.29-.14.43-.05.15-.12.26-.2.34-.3.92-.51,1.6-.65,2.06,0,.05-.02.15-.09.31v-.34c-.33-.45-.65-.99-.99-1.62,0,0-.29-.57-.86-1.67-.08-.27-.13-.48-.15-.63-.12.03-.24.05-.37.08,0,.46,0,1.06,0,1.81,0,1.19-.04,2.17-.13,2.93-.03.22.04.33.22.33.05,0,.16-.02.31-.05.12-.02.21-.02.26-.01,1.16.05,2.94.09,5.35.13,2.41.04,4.2.08,5.36.13l.04-5.94c-.03-.47-.05-.83-.04-1.07-3.17,0-5.58-.02-7.23-.05Zm5.56,5.04c-.1.41-.25.67-.46.79-.1-.17-.16-.31-.18-.41-.82-2.12-1.29-3.37-1.42-3.74l3.46.09c-.62,1.44-1.09,2.53-1.41,3.26Zm-31.01-3.91c-.04-.47-.05-.83-.04-1.07-3.26,0-5.71-.02-7.37-.05-.07,0-.1-.03-.1-.06,0-.02.01-.05.03-.09.02-.04.03-.07.03-.1,0-.02,0-.04-.01-.05.19-.41.47-1.09.83-2.03.12-.3.23-.57.33-.82l-2.29.7c.03.08.05.14.08.22.3.87.52,1.59.65,2.16-.22.02-.46.03-.73.03-.22,0-.57-.01-1.03-.04.23.6.49,1.19.76,1.77,2.04.01,3.65.02,4.83.02v.05c-.18.37-.44,1.08-.77,2.14-.29.92-.6,1.62-.94,2.08-.24-.44-.56-1.1-.94-1.97-.39-.89-.7-1.55-.92-1.95-.1.07-.18.18-.24.34-.05.16-.1.3-.14.45-.04.11-.07.23-.11.35.74,1.33,1.59,2.58,2.54,3.74.05,0,.09,0,.14,0,2.41.04,4.2.08,5.36.13l.04-5.94Zm-1.71,3.91c-.1.41-.26.67-.46.79-.1-.17-.16-.31-.18-.41-.82-2.12-1.29-3.37-1.42-3.74l3.47.09c-.63,1.44-1.09,2.53-1.41,3.26Zm.47-65.5h-.27c.09.24.18.47.27.66v-.66Zm1.95,71.66c-.23-.38-.52-.72-.89-1.01-.37-.29-.64-.51-.82-.66-.15-.36-.45-.53-.9-.53h-.99s-.12.04-.31.04c-.14,0-.2.06-.17.2l.41.44c1.13,1.03,2.36,1.96,3.68,2.79-.01-.12-.03-.25-.04-.42-.03-.34-.01-.62.04-.83Zm5.41-4.18h1.59l.08-.08c-1.1-1.21-2.64-2.81-4.64-4.78-.02-.12-.1-.17-.23-.16v2.18l1.92,2.08c.24.47.67.72,1.29.75Zm-2-26.66c.05.1.07.18.09.26,3.24-.61,6.52-1,9.25-1.05v-.23c-.24-.02-.57,0-.99.03-.42.04-.73.05-.95.05-2.42-.16-3.96-.23-4.64-.23-.34,0-.86-.01-1.55-.04-.7-.03-1.22-.04-1.56-.04-.47,0-.89.02-1.25.05-.03,0-.06.01-.09.01-.03,0-.08-.01-.14-.03-.05-.02-.1-.03-.12-.03-.05,0-.1.03-.14.08-.02.42-.03,1.06-.03,1.89.68-.15,1.36-.29,2.05-.42.04-.11.07-.21.08-.29Zm.92-3.21h1.59l.08-.08c-1.09-1.21-2.64-2.81-4.64-4.78-.02-.12-.1-.17-.23-.16v2.18l1.91,2.08c.24.47.67.72,1.29.75Zm49.76-20.33c.05.04.08.1.08.16,0,.03,0,.07-.02.12-.01.05-.02.09-.02.12,0,.07.04.13.12.18-.77.57-1.34.97-1.73,1.23-.07.08-.25.21-.55.4-.24.15-.39.3-.46.44.53.91,1.26,1.51,2.2,1.8.94-1.57,1.52-2.53,1.76-2.87.22,0,.42.07.61.22-.45,1.45-.77,2.54-.96,3.27.24.16.43.27.57.31.11,0,.29.01.55.03.26.02.46.03.59.03.42,0,.73-.1.93-.29-.29-1.5-.44-2.27-.44-2.29,0-.07-.02-.21-.07-.42-.05-.21-.07-.37-.07-.48,0-.21.07-.35.22-.42.06.02.14,0,.24-.05.09-.05.16-.08.2-.08.06,0,.11.04.16.13.22.4.47.98.74,1.75.31.84.55,1.43.7,1.77.92-.43,1.71-1.09,2.37-1.98-1.41-.96-2.46-1.7-3.15-2.2.08-.24.15-.42.22-.53,1.68.6,2.92,1.07,3.74,1.42.2-.29.35-.68.45-1.16.07-.43.14-.85.21-1.26l-.09-.09c-.17.02-.36.03-.56.03-.27,0-.68-.03-1.25-.09-.56-.06-.99-.09-1.27-.09-.27,0-.52.02-.75.05l-.12-.06v-.13c0-.07-.02-.17-.06-.3-.04-.13-.06-.22-.06-.29s.02-.12.05-.17c.49-.15,1.12-.29,1.89-.42,1.19-.21,1.83-.32,1.92-.34.04-.09.05-.18.05-.29,0-.15-.03-.33-.1-.55-.1-.3-.15-.48-.17-.53-.12-.12-.23-.34-.34-.66-.1-.32-.23-.54-.38-.67-.47.41-1.02.84-1.65,1.3-.35.26-.92.66-1.72,1.21h-.22c-.11-.18-.14-.37-.09-.56.96-1.72,1.68-2.87,2.15-3.44-.57-.28-1.16-.52-1.76-.72-.11.02-.25,0-.43-.05-.18-.05-.3-.08-.37-.08-.11,0-.2.04-.26.13-.06.43-.15,1.06-.27,1.9-.12.84-.21,1.48-.27,1.9-.4.15-.63.22-.69.22-.11,0-.2-.03-.27-.09-.1-.52-.17-1.15-.22-1.89-.04-.62-.09-1.24-.13-1.86l-.13-.13c-.28-.02-.58.01-.89.08-.43.67-.84,1.37-1.23,2.09.12.14.24.29.38.46.5.59.86,1.09,1.08,1.51-.09.02-.17.09-.23.23-.07.14-.13.2-.18.2-.04,0-.09-.02-.14-.05-.57-.41-1.07-.79-1.52-1.14-.3.61-.59,1.23-.86,1.87.06.02.12.04.17.05.13.08.42.18.86.3.36.11.64.25.82.4.02.21-.03.39-.13.53-.93-.05-1.65-.09-2.2-.11-.29.75-.57,1.52-.82,2.3.46-.1.98-.27,1.58-.54.99-.45,1.56-.71,1.72-.77Zm1.47-1.35c.22-.43.59-.69,1.11-.76.18.06.37.12.56.18.22.09.35.22.39.39.3.21.46.46.46.77,0,.1-.02.2-.05.3-.17.24-.35.49-.54.74-.22.3-.47.45-.75.43-.21.03-.43-.02-.65-.17-.19-.13-.38-.27-.57-.4-.12-.18-.18-.39-.18-.61,0-.26.08-.55.23-.87Zm6.96,45.67c-.04-.47-.05-.83-.04-1.07-3.26,0-5.71-.02-7.37-.05-.07,0-.11-.03-.11-.06,0-.02.01-.05.03-.09.02-.04.03-.07.03-.1,0-.02,0-.04-.01-.05.19-.41.47-1.09.83-2.03.35-.89.64-1.56.87-2.03,0-.13.1-.25.31-.35.13.3.27.75.43,1.33.17.64.29,1.09.39,1.34.28.88.48,1.54.6,1.98.02,0,.04.01.05.01.04,0,.07-.03.1-.08.03-.05.06-.09.08-.1-.02-.12.03-.29.13-.5.1-.21.16-.37.17-.48.1-.09.22-.25.36-.49.14-.24.26-.4.37-.49l-.03-.03c.39-1.06.75-1.93,1.08-2.62.17.43.44,1.23.81,2.4.32,1.02.61,1.81.86,2.37v-5.67c-.24-.02-.57,0-.99.03-.42.04-.73.05-.95.04-2.42-.16-3.96-.24-4.64-.24-.34,0-.85-.01-1.55-.04-.69-.03-1.21-.04-1.56-.04-.47,0-.89.02-1.25.05-.03,0-.06.01-.09.01s-.08-.01-.13-.03c-.06-.02-.1-.03-.13-.03-.05,0-.1.03-.14.08-.03.6-.04,1.6-.03,3.01.19.56.39,1.11.6,1.66.11-.25.25-.54.45-.91.32-.58.52-1.04.61-1.37.02-.15.1-.35.24-.61.14-.26.22-.46.23-.61.07.15.12.27.13.38.08.26.33.96.74,2.11.3.87.52,1.59.65,2.16-.22.02-.46.03-.73.03s-.72-.02-1.34-.05c-.2,0-.36-.01-.53-.02.26.61.53,1.21.81,1.8,2.42.01,4.3.02,5.62.02v.05c-.18.37-.44,1.08-.77,2.14-.29.92-.6,1.62-.94,2.08-.24-.44-.55-1.1-.94-1.97-.39-.89-.7-1.55-.93-1.95-.1.07-.18.18-.23.34-.05.16-.1.3-.14.45-.04.14-.09.29-.14.43-.05.15-.12.26-.2.34-.04.14-.08.26-.12.38.59,1.02,1.23,1.99,1.92,2.92.36,0,.72.01,1.11.02,2.41.04,4.2.08,5.36.13l.04-5.94Zm-1.71,3.91c-.11.41-.26.67-.46.79-.1-.17-.17-.31-.18-.41-.82-2.12-1.29-3.37-1.42-3.74l3.47.09c-.63,1.44-1.09,2.53-1.41,3.26Zm5.58-42.98c.05,0,.16-.02.31-.05.12-.02.21-.02.26-.01.39.02.87.03,1.41.05.09-.3.19-.59.29-.88v-.33c-.33-.45-.65-.99-.99-1.62,0,0-.29-.57-.86-1.67-.09-.29-.14-.52-.15-.67,1.53,0,2.87.02,4.03.02.4-.61.84-1.18,1.32-1.68-.64,0-1.21-.01-1.71-.02-.07,0-.1-.03-.1-.07,0-.02.01-.05.03-.09.02-.04.03-.07.03-.1,0-.02,0-.03-.01-.05.19-.41.47-1.09.83-2.03.35-.89.64-1.56.87-2.03,0-.13.1-.25.31-.35.13.3.27.75.43,1.33.16.64.29,1.09.39,1.34.11.34.2.63.28.91.42-.29.86-.53,1.33-.74.09-.14.18-.26.25-.32l-.03-.03c.39-1.06.75-1.93,1.08-2.62.17.43.44,1.23.81,2.4,0,0,0,0,0,0,.28-.03.57-.05.86-.06v-3.24c-.24-.02-.57,0-.99.03-.42.04-.73.05-.95.05-2.41-.16-3.96-.23-4.64-.23-.34,0-.86-.01-1.55-.04-.7-.03-1.22-.04-1.56-.04-.47,0-.89.02-1.25.05-.02,0-.06.01-.09.01-.04,0-.08-.01-.14-.03-.06-.02-.1-.03-.12-.03-.05,0-.1.03-.14.08-.05.95-.04,2.9.02,5.88-.04.05-.05.11-.05.18,0,.04.02.12.05.23.03.11.05.2.04.27,0,.16,0,1.13,0,2.93,0,1.19-.04,2.17-.13,2.93-.03.22.04.33.22.33Zm.16-7.35c.07-.15.1-.26.1-.34.09-.29.29-.73.61-1.31.32-.58.52-1.04.61-1.37.02-.15.1-.35.24-.61.14-.26.22-.46.23-.61.07.15.11.27.13.38.08.26.33.96.74,2.11.3.87.52,1.59.65,2.16-.22.02-.46.03-.73.03s-.72-.02-1.34-.05c-.58-.03-1.02-.04-1.32-.03-.02-.1,0-.22.08-.36Zm-16.96,15.59s.02.12.05.24c.04.11.05.2.04.27,0,.16,0,1.13,0,2.93,0,.74-.01,1.39-.05,1.96.8.05,1.6.12,2.4.19v-.11c-.32-.45-.64-.99-.98-1.62,0,0-.29-.56-.86-1.67-.09-.29-.14-.52-.16-.67,3.12.02,5.46.03,7.04.03v.05c-.18.37-.44,1.08-.77,2.14-.29.92-.6,1.62-.94,2.08-.24-.44-.55-1.1-.94-1.97-.39-.89-.7-1.55-.93-1.95-.1.07-.18.18-.23.34-.05.16-.1.3-.14.45-.04.14-.09.29-.14.43-.05.15-.12.26-.2.34-.29.91-.51,1.6-.65,2.06,0,.02,0,.06-.01.09,2.98.25,5.96.62,8.94,1.06l.04-5.7c-.04-.47-.05-.83-.04-1.07-3.26,0-5.72-.02-7.38-.05-.07,0-.1-.03-.1-.06,0-.02.01-.05.03-.09.02-.04.03-.07.03-.1,0-.02,0-.04-.01-.05.19-.41.47-1.09.83-2.03.35-.89.64-1.56.87-2.03,0-.13.1-.25.31-.35.13.3.27.75.43,1.33.16.64.3,1.09.39,1.34.28.88.48,1.54.6,1.98.02,0,.04.01.05.01.03,0,.07-.03.1-.08.03-.05.06-.09.08-.11-.02-.12.03-.29.13-.49.1-.21.16-.37.17-.48.1-.09.23-.25.37-.49.14-.24.26-.4.36-.49l-.03-.03c.39-1.06.75-1.93,1.08-2.62.17.43.44,1.23.81,2.4.32,1.02.61,1.81.86,2.37v-5.67c-.24-.02-.57,0-.99.03-.42.04-.73.05-.95.05-2.41-.16-3.96-.23-4.64-.23-.34,0-.86-.01-1.55-.04-.7-.03-1.22-.04-1.56-.04-.47,0-.88.02-1.25.05-.03,0-.06.01-.09.01s-.08-.01-.14-.03c-.05-.02-.1-.03-.12-.03-.05,0-.1.03-.14.08-.05.95-.04,2.91.02,5.88-.03.05-.05.11-.05.18Zm11.2,1.6c-.62,1.44-1.09,2.53-1.41,3.27-.1.41-.26.67-.46.79-.1-.18-.17-.31-.18-.41-.82-2.12-1.29-3.37-1.42-3.74l3.46.09Zm-10.87-2.25c.07-.15.1-.26.1-.34.09-.3.29-.73.61-1.31.32-.58.52-1.04.61-1.38.02-.15.1-.35.24-.6.14-.26.22-.46.23-.61.07.15.11.27.13.38.08.26.33.96.74,2.11.3.87.52,1.59.65,2.16-.22.02-.46.03-.73.03s-.72-.02-1.34-.05c-.58-.03-1.02-.03-1.32-.03-.02-.1,0-.22.08-.36Zm40.09-29.44s.07-.03.1-.08c.02-.04.04-.06.06-.08-.1-.05-.19-.09-.29-.14.03.1.06.2.08.28.02,0,.03.01.05.01Zm-37.28,51.87l.08-.08c-.97-1.07-2.31-2.46-3.99-4.13.14.97.3,1.93.49,2.87l.54.59c.24.47.67.72,1.29.75h1.59Zm11.33-44.76l.04-5.94c-.02-.26-.03-.48-.04-.67-.72.39-1.4.82-2.07,1.27l1.8.05c-.63,1.44-1.09,2.53-1.41,3.26-.1.41-.25.67-.46.79-.1-.17-.17-.31-.18-.41-.46-1.2-.81-2.11-1.05-2.75-.47.37-.93.76-1.38,1.16,0,.02-.01.04-.02.07-.29.92-.6,1.62-.94,2.08-.12-.22-.26-.49-.41-.82-.52.55-1.02,1.13-1.5,1.73.68.01,1.42.03,2.24.04,2.41.03,4.2.08,5.36.13Zm7,67.62c-.07,0-.11-.03-.11-.07,0-.02.01-.05.03-.08.02-.04.03-.07.03-.1,0-.02,0-.03-.01-.05.19-.41.47-1.09.83-2.03.35-.89.64-1.56.87-2.03,0-.13.1-.25.31-.35.13.3.27.75.43,1.33.16.64.29,1.09.39,1.34.28.88.48,1.54.6,1.98.02,0,.04.01.05.01.04,0,.07-.03.1-.08.03-.05.06-.09.08-.1-.02-.12.02-.29.13-.5.1-.21.16-.37.17-.48.1-.09.22-.25.36-.49.14-.24.26-.4.37-.49l-.03-.03c.39-1.06.75-1.93,1.08-2.62.17.44.44,1.23.81,2.4.32,1.02.61,1.81.86,2.37v-5.67c-.24-.02-.57,0-.99.03-.42.04-.73.05-.95.04-2.41-.16-3.96-.23-4.64-.23-.34,0-.86-.01-1.55-.04-.7-.03-1.22-.04-1.56-.04-.47,0-.89.02-1.25.05-.03,0-.06.01-.09.01s-.08-.01-.14-.03c-.06-.02-.1-.03-.13-.03-.05,0-.1.03-.14.08-.05.95-.04,2.9.03,5.88-.04.05-.05.11-.05.18,0,.04.02.12.05.23.01.04,0,.06.01.1,1.29.5,2.65.89,4.09,1.2,1.34,0,2.46,0,3.33,0v.05c-.04.11-.11.26-.18.44.21.02.44.04.65.06-.1-.27-.17-.46-.21-.57l3.47.09c-.09.21-.18.41-.26.61.19,0,.37-.01.55-.01v-1.24c-.03-.47-.04-.83-.03-1.07-3.26,0-5.71-.02-7.37-.05Zm-1.17-.04c-.27,0-.72-.02-1.34-.05-.58-.03-1.02-.04-1.31-.03-.02-.09,0-.22.08-.37.07-.15.1-.26.1-.34.09-.29.29-.73.61-1.31.32-.58.52-1.04.61-1.37.02-.15.1-.35.24-.61.14-.26.22-.46.23-.61.07.15.11.27.13.38.08.26.33.96.74,2.11.3.87.52,1.59.65,2.16-.22.02-.46.03-.73.03Zm12.77-67.78c.05,0,.16-.02.31-.05.12-.02.21-.02.26-.01,1.15.05,2.94.09,5.35.13,2.41.03,4.2.08,5.36.13l.03-5.04c-.1-.07-.21-.14-.31-.21-.62,1.42-1.08,2.5-1.39,3.23-.11.41-.26.67-.46.79-.1-.17-.17-.31-.18-.41-.82-2.12-1.29-3.37-1.42-3.74l3.39.09c-.93-.64-1.91-1.22-2.94-1.73-1.68,0-3.05-.02-4.1-.04-.07,0-.1-.03-.1-.07,0-.02.01-.05.03-.08.02-.04.03-.07.03-.1,0-.02,0-.03-.01-.05.12-.26.29-.65.48-1.14-.46-.14-.92-.27-1.39-.39.23.68.41,1.28.52,1.76-.22.02-.46.03-.73.03s-.72-.02-1.34-.05c-.58-.03-1.02-.03-1.32-.03-.02-.1,0-.22.08-.36.07-.15.11-.26.11-.34.09-.3.29-.73.61-1.31.03-.05.04-.09.07-.14-.36-.06-.74-.11-1.11-.17,0,.72.02,1.51.05,2.42-.03.05-.05.11-.05.18,0,.04.02.12.05.23.04.11.05.2.04.27,0,.16,0,1.13,0,2.93,0,1.19-.04,2.17-.13,2.93-.03.22.04.33.22.33Zm7.3-5.16v.05c-.18.36-.44,1.08-.77,2.14-.29.92-.6,1.62-.94,2.08-.24-.44-.56-1.1-.94-1.97-.39-.89-.7-1.55-.93-1.96-.1.07-.18.18-.23.34-.05.16-.1.3-.14.45-.04.14-.09.29-.14.43-.05.15-.12.26-.2.34-.29.91-.51,1.6-.65,2.06,0,.05-.02.16-.09.31v-.34c-.33-.45-.65-.99-.99-1.62,0,0-.29-.56-.86-1.67-.09-.29-.14-.52-.16-.67,3.12.02,5.46.02,7.04.02Zm-55.53,49.9c1.15.05,2.94.1,5.35.13,2.41.03,4.2.08,5.36.13l.03-5.09c-.12,0-.25-.02-.37-.02-.59,1.35-1.03,2.39-1.33,3.09-.1.41-.26.67-.46.79-.1-.17-.16-.31-.18-.41-.72-1.87-1.17-3.06-1.36-3.57-.12,0-.24,0-.35,0-.19.38-.43,1.06-.74,2.04-.29.92-.6,1.62-.94,2.08-.24-.44-.55-1.1-.94-1.97-.39-.9-.7-1.55-.92-1.95-.1.07-.18.18-.23.34-.05.16-.1.3-.14.45-.04.14-.09.29-.14.43-.05.15-.12.26-.2.34-.3.91-.51,1.6-.65,2.06,0,.05-.02.16-.09.31v-.34c-.33-.45-.65-.99-.99-1.62,0,0-.29-.57-.86-1.67-.02-.06-.03-.1-.04-.15-.16.02-.32.03-.47.05,0,.39,0,.83,0,1.36,0,1.19-.03,2.17-.13,2.93-.04.22.04.33.22.33.05,0,.16-.02.31-.05.12-.02.21-.02.26-.01Zm29.52,19.32c-.23-.38-.52-.72-.89-1.01-.36-.29-.64-.51-.82-.66-.15-.36-.45-.53-.9-.53h-.99s-.12.04-.31.04c-.14,0-.2.06-.17.2l3.59,3.88c.06.03.14.09.23.19.1.1.16.16.2.18.06-.17.09-.37.09-.58,0-.07-.03-.36-.08-.86-.03-.34-.01-.62.04-.83Zm15.4-70.03c-.27,0-.69-.03-1.25-.09-.56-.06-.99-.09-1.27-.09-.27,0-.52.02-.75.05l-.12-.06v-.13c0-.07-.02-.17-.07-.3-.04-.13-.06-.23-.06-.29s.02-.12.05-.17c.49-.15,1.12-.29,1.89-.42,1.19-.21,1.83-.32,1.92-.34.04-.09.05-.18.05-.29,0-.15-.03-.33-.1-.55-.09-.3-.15-.48-.17-.53-.08-.08-.16-.23-.24-.41-.47-.02-.93-.04-1.41-.04-.06,0-.11,0-.17,0-.18.14-.36.28-.56.42-.35.26-.92.66-1.72,1.21h-.22c-.11-.18-.14-.37-.09-.56.21-.37.39-.69.58-1.01-.58.03-1.15.08-1.7.14-.03.19-.05.37-.07.51-.4.15-.63.22-.69.22-.11,0-.2-.03-.27-.09-.03-.15-.05-.32-.07-.49-.47.07-.93.15-1.39.24.12.17.23.34.31.49-.09.02-.17.09-.24.23-.07.13-.13.2-.18.2-.04,0-.09-.02-.14-.05-.31-.22-.6-.43-.87-.64-.99.24-1.93.53-2.85.86.65.28,1.16.48,1.5.56.13.08.42.18.86.3.36.11.64.25.82.4.02.21-.03.39-.13.53-1.12-.06-1.96-.1-2.51-.13-.09,0-.24-.04-.42-.1-.19-.06-.33-.08-.42-.08-.13,0-.25.04-.35.13,0,.96.16,1.76.48,2.42.5-.09,1.1-.29,1.8-.6.99-.45,1.56-.71,1.72-.77.05.04.08.1.08.16,0,.03,0,.06-.02.12-.01.05-.02.09-.02.12,0,.07.04.13.12.18-.76.57-1.34.97-1.73,1.22-.07.08-.25.21-.55.4-.24.15-.4.3-.46.44.53.91,1.26,1.51,2.2,1.8.94-1.57,1.53-2.53,1.76-2.87.22,0,.42.06.61.22-.45,1.45-.77,2.54-.96,3.27.24.16.43.27.57.31.1,0,.29.01.55.03.26.02.46.03.59.03.43,0,.74-.1.93-.29-.29-1.5-.44-2.27-.44-2.29,0-.07-.02-.21-.07-.42-.05-.21-.07-.37-.07-.48,0-.21.07-.35.22-.42.06.02.14,0,.23-.05.1-.05.16-.08.2-.08.06,0,.11.04.16.13.22.4.47.98.74,1.75.31.84.55,1.43.7,1.77.92-.43,1.71-1.09,2.37-1.98-1.41-.96-2.46-1.7-3.15-2.2.08-.24.15-.42.22-.53,1.68.6,2.92,1.07,3.74,1.42.2-.3.35-.68.46-1.16.07-.43.14-.85.21-1.26l-.09-.09c-.17.02-.36.03-.56.03Zm-4.6.25c-.18.24-.35.49-.54.74-.22.3-.47.45-.75.43-.21.03-.43-.02-.65-.17-.19-.13-.38-.26-.57-.4-.12-.18-.18-.39-.18-.61,0-.26.08-.55.23-.87.22-.44.59-.69,1.11-.76.18.06.37.12.56.18.22.09.35.22.39.39.3.21.46.46.46.77,0,.1-.02.2-.05.3Zm-64.89-.35v-.21l-1.03-1.31h-.82l-1.17,1.19v.12c.71.69,1.25,1.21,1.6,1.56l1.42-1.35Zm7.57,12.7c.66-.53,1.4-1.22,2.23-2.07.7-.75,1.41-1.49,2.11-2.23v-.17l-2.14-.04-2.68,2.68.04,2.31.44-.48Zm-1.35,14.54c.06.03.14.09.23.19.1.1.16.16.2.18.06-.17.09-.37.09-.59,0-.07-.03-.35-.08-.86-.03-.34-.01-.61.04-.83-.02-.03-.04-.06-.06-.09-.69.05-1.39.12-2.07.21l1.66,1.79Zm-8.6-21.89c.47.42.83.68,1.08.79,1.81-1.59,3.73-3.51,5.78-5.76.37-.41.59-.72.65-.95-.32-.32-.64-.63-.96-.96h-2.6c.31.34.59.66.82.92.03.25-.1.52-.38.82l-.68.74c-.43.36-.89.78-1.38,1.28-.11.11-.55.56-1.3,1.34-.04,0-.09,0-.15.02-.06.02-.1.03-.12.03-.03,0-.06-.02-.09-.05l-.95-.99c-.36-.31-.79-.73-1.29-1.25-.42-.45-.85-.9-1.28-1.34l.04-.27c.4-.43.79-.83,1.18-1.24h-2.69c-.31.32-.59.64-.84.92-.02.04-.07.11-.17.2-.1.09-.14.17-.14.24,2.33,2.51,4.15,4.35,5.46,5.51Zm35.67-4.69v-1.76l-.33-.42h-.82l-1.17,1.19v.12c.71.69,1.25,1.21,1.6,1.56l.72-.69Zm-22.01.92c.99-.45,1.57-.71,1.72-.77.05.04.08.1.08.16,0,.03,0,.06-.02.12-.01.05-.02.09-.02.12,0,.07.04.13.12.18-.76.57-1.34.97-1.73,1.22-.07.08-.25.21-.55.4-.24.15-.39.3-.45.44.53.91,1.26,1.51,2.2,1.8.94-1.57,1.52-2.53,1.76-2.87.22,0,.42.06.61.22-.45,1.45-.77,2.54-.96,3.27.24.16.44.27.57.31.1,0,.29.01.55.03.27.02.46.03.59.03.43,0,.73-.1.92-.29-.29-1.5-.43-2.27-.44-2.29,0-.07-.02-.21-.07-.42-.05-.21-.07-.37-.07-.48,0-.21.07-.35.22-.42.06.02.14,0,.24-.05.1-.05.16-.08.2-.08.06,0,.11.04.16.13.22.4.46.98.74,1.75.31.84.55,1.43.7,1.77.92-.43,1.71-1.09,2.37-1.98-1.41-.96-2.46-1.7-3.15-2.2.08-.24.15-.42.22-.53,1.68.6,2.92,1.07,3.74,1.42.2-.3.35-.68.46-1.16.07-.43.14-.85.21-1.26l-.09-.09c-.17.02-.36.03-.56.03-.27,0-.68-.03-1.25-.09-.56-.06-.99-.09-1.27-.09-.27,0-.52.02-.75.05l-.12-.06v-.13c0-.07-.02-.17-.07-.3-.04-.13-.07-.23-.07-.29s.02-.12.05-.17c.49-.15,1.12-.29,1.89-.42.26-.05.49-.09.7-.12h-10.18c.27.1.5.18.69.23.13.08.42.18.86.3.37.11.64.25.82.4.02.21-.03.39-.13.53-1.12-.06-1.96-.1-2.51-.13-.1,0-.24-.04-.42-.1-.19-.06-.33-.08-.42-.08-.13,0-.25.04-.35.13,0,.96.16,1.76.48,2.42.5-.09,1.1-.29,1.8-.6Zm3.19-2.12c.22-.44.59-.69,1.11-.76.18.06.37.12.56.18.22.09.35.22.39.39.31.21.46.46.46.77,0,.1-.02.2-.05.3-.17.24-.35.49-.53.74-.22.3-.47.45-.76.43-.21.03-.42-.02-.65-.17-.19-.13-.38-.26-.57-.4-.12-.18-.18-.39-.18-.61,0-.26.08-.55.23-.87Zm-12.73,6.76c1.18,0,1.88.01,2.11.04l.23-.08c.3-.28.67-.68,1.11-1.21.5-.63.86-1.04,1.06-1.25.02-.26.01-.64-.02-1.13-.03-.49-.04-.87-.03-1.13h-.08s-.05.02-.06.05c-.75.76-1.5,1.53-2.24,2.29-.85.9-1.54,1.7-2.07,2.41Zm29.86-.87c.47.42.83.68,1.08.79.2-.17.4-.37.61-.55v-2.68c-.18.19-.39.4-.64.67-.04,0-.09,0-.15.02-.06.02-.1.03-.12.03-.04,0-.07-.02-.09-.05l-.95-.99c-.36-.31-.79-.73-1.29-1.25-.42-.45-.85-.9-1.28-1.34l.04-.27c.4-.43.79-.83,1.18-1.24h-2.69c-.31.32-.6.64-.84.92-.02.04-.07.11-.17.2-.09.09-.14.17-.14.24,2.33,2.51,4.15,4.35,5.46,5.51Zm-3.62.86h1.59l.08-.08c-1.1-1.21-2.64-2.81-4.64-4.78-.02-.12-.1-.17-.24-.15v2.18l1.92,2.08c.24.47.67.72,1.29.75Zm5.74,51.62h-.22c-.11-.18-.14-.37-.09-.56.96-1.72,1.68-2.87,2.15-3.44-.57-.28-1.16-.52-1.76-.72-.1.02-.25,0-.43-.05-.18-.05-.3-.08-.36-.08-.11,0-.2.04-.26.13-.06.43-.15,1.06-.27,1.9-.12.84-.21,1.48-.27,1.9-.4.15-.63.22-.69.22-.11,0-.2-.03-.27-.09-.09-.52-.17-1.15-.22-1.89-.04-.62-.09-1.24-.13-1.86l-.13-.13c-.64-.04-1.36.13-2.16.54,0,0-.16.1-.45.26-.19.1-.3.22-.34.35.09.12.5.61,1.21,1.47.49.59.86,1.09,1.08,1.51-.09.02-.16.09-.23.23-.07.13-.13.2-.18.2-.04,0-.09-.02-.14-.05-1.29-.92-2.27-1.71-2.96-2.36-.22.23-.43.55-.61.98-.16.36-.31.71-.46,1.07l-.04.38c.83.37,1.44.61,1.85.72.13.08.42.18.86.3.37.11.64.25.82.4.02.21-.03.38-.13.53-1.12-.06-1.96-.1-2.51-.13-.1,0-.24-.04-.42-.1-.19-.06-.33-.08-.42-.08-.13,0-.25.04-.35.13,0,.96.16,1.76.48,2.42.5-.09,1.1-.29,1.8-.6.99-.45,1.56-.71,1.72-.77.05.04.08.1.08.16,0,.03,0,.07-.02.12-.01.05-.02.09-.02.12,0,.07.04.13.12.18-.76.56-1.34.97-1.73,1.22-.07.08-.25.21-.55.4-.24.15-.39.29-.45.44.53.91,1.26,1.51,2.2,1.8.94-1.57,1.53-2.53,1.76-2.87.22,0,.42.07.61.22-.45,1.45-.77,2.54-.96,3.27.24.17.43.27.57.31.1,0,.29.01.55.03.15.01.27.02.38.03.33-.41.65-.83.95-1.27-.16-.85-.25-1.28-.25-1.3,0-.07-.02-.21-.07-.42-.05-.21-.07-.37-.07-.48,0-.21.07-.35.22-.42.06.02.14,0,.23-.05.09-.05.16-.08.19-.08.06,0,.11.04.16.13.16.29.33.67.52,1.15.26-.45.51-.91.75-1.38-.22-.16-.43-.3-.61-.43.08-.24.15-.42.22-.54.26.09.49.18.74.27.23-.49.44-1,.63-1.51-.04,0-.1,0-.13,0-.27,0-.52.02-.75.05l-.12-.07v-.13c0-.07-.02-.17-.06-.3-.04-.13-.07-.23-.07-.29s.02-.12.05-.17c.4-.12.93-.24,1.53-.35.27-.83.5-1.69.7-2.58-.31.25-.64.51-1.01.77-.35.26-.92.66-1.72,1.21Zm-.62,2.27c-.17.24-.35.49-.53.74-.22.3-.47.45-.76.43-.21.04-.43-.02-.65-.17-.19-.13-.38-.26-.57-.4-.12-.18-.18-.39-.18-.61,0-.26.08-.55.24-.87.22-.43.59-.69,1.11-.76.18.06.37.12.56.18.22.09.35.22.39.39.3.21.46.46.46.77,0,.09-.02.19-.05.3Zm-10.55-49.7c-.22-.38-.52-.72-.88-1.01-.36-.29-.64-.51-.82-.66-.15-.36-.45-.53-.9-.53h-.99s-.12.04-.31.04c-.14,0-.2.07-.17.2l3.6,3.88c.06.03.14.09.23.19.1.1.16.16.19.18.06-.17.09-.37.09-.58,0-.07-.03-.36-.08-.86-.03-.34-.01-.62.04-.83Zm3.59,21.07c.99-.45,1.56-.71,1.72-.77.05.04.08.09.08.16,0,.03,0,.06-.02.12-.01.05-.02.09-.02.12,0,.07.04.13.12.18-.76.57-1.34.97-1.73,1.23-.07.08-.25.21-.55.4-.24.15-.4.29-.46.44.36.61.81,1.07,1.35,1.4.38-.03.76-.05,1.14-.08.77-1.29,1.27-2.09,1.48-2.39.22,0,.42.06.61.22-.25.81-.46,1.49-.63,2.07.68-.04,1.36-.06,2.05-.08-.12-.6-.18-.91-.18-.93,0-.07-.02-.21-.07-.42-.03-.12-.04-.22-.05-.3-1.11-1.13-2.35-2.14-3.7-3.03-.96-.05-1.71-.09-2.21-.11-.1,0-.24-.04-.42-.1-.19-.06-.33-.08-.42-.08-.13,0-.25.04-.35.13,0,.96.16,1.76.48,2.42.5-.09,1.1-.29,1.8-.6Z"/>
          <path id="blue_ribbon" data-name="blue ribbon" class="cls-6" d="m483.47,47.81c-27.81,10.84-68.09-13.74-103.37-4.83-8.92,1.95-17.15,7.08-22.84,14.98l2.63-.68s1.44,4.85,3.98,6.53c4.45-3.98,10.94-8.2,17.81-9.93,28.36-7.16,67.89,14.59,100.49,7.15l1.29-13.22Z"/>
          <path id="anniversary" class="cls-7" d="m378.23,45.96l1.59-.38,4.96,6.61-1.85.45-1.04-1.45-3.03.73-.25,1.76-1.79.43,1.42-8.14Zm2.84,4.04l-1.63-2.3-.38,2.78,2.01-.48Zm6.11-5.92l2.06-.2,3.5,4.93h.03s-.5-5.22-.5-5.22l1.63-.16.72,7.55-2.06.2-3.5-4.94h-.03s.5,5.23.5,5.23l-1.63.16-.72-7.55Zm11.96-.75l2.07.08,2.81,5.35h.03s.2-5.23.2-5.23l1.64.06-.29,7.59-2.07-.08-2.81-5.36h-.03s-.2,5.25-.2,5.25l-1.64-.06.28-7.59Zm11.48.72l1.7.19-.83,7.54-1.7-.19.83-7.54Zm5.14.59l1.83.29,1.04,5.57h.06s2.75-4.95,2.75-4.95l1.74.28-4.2,7.01-1.45-.23-1.76-7.97Zm10.72,1.81l5.14,1-.27,1.39-3.46-.67-.3,1.57,3.28.64-.26,1.32-3.28-.64-.34,1.74,3.64.71-.28,1.43-5.32-1.03,1.45-7.44Zm9.11,1.81l2.7.56c1.52.31,2.7,1.18,2.37,2.82-.22,1.07-1,1.67-1.86,1.76l1.12,3.5-1.97-.41-.89-3.2-.73-.15-.59,2.89-1.67-.34,1.53-7.43Zm1.85,3.78c.63.13,1.35.11,1.52-.74.14-.7-.42-1.02-1.02-1.14l-.96-.2-.39,1.91.85.17Zm10.94.85c-.23-.5-.75-.98-1.4-1.11-.56-.11-1.17,0-1.27.56-.11.56.4.83,1.34,1.27,1,.46,2.14,1.19,1.87,2.63-.34,1.8-1.87,2.23-3.42,1.94-1.09-.21-2.15-.85-2.68-1.76l1.39-.96c.27.59.87,1.12,1.63,1.26.52.1,1.16.02,1.29-.63.12-.62-.39-.9-1.41-1.36-1-.46-1.96-1.11-1.7-2.5.31-1.65,1.87-2.1,3.25-1.84,1.02.19,2.01.76,2.44,1.63l-1.35.87Zm7.06-.92l1.62.23,2.2,7.97-1.89-.26-.44-1.73-3.09-.43-.88,1.55-1.83-.25,4.3-7.06Zm1.17,4.8l-.68-2.74-1.37,2.45,2.05.29Zm6.12-3.93l2.76.12c1.55.07,2.85.74,2.78,2.4-.05,1.09-.72,1.8-1.56,2.03l1.66,3.28-2.01-.09-1.38-3.02-.74-.03-.13,2.95-1.71-.07.33-7.58Zm2.43,3.44c.64.03,1.35-.11,1.39-.98.03-.71-.58-.94-1.19-.96l-.98-.04-.08,1.94.87.04Zm8.06,1.02l-3.3-4.17,1.99-.21,2.04,2.87,1.37-3.23,1.92-.21-2.33,4.77.33,3.08-1.7.18-.33-3.08Z"/>
          <path id="circle_white" data-name="circle white" class="cls-7" d="m85.06,43.36c0,23.77-19.02,43.05-42.49,43.05S.07,67.14.07,43.36,19.1.32,42.57.32s42.49,19.27,42.49,43.05"/>
          <path class="cls-5" d="m2.82,58.73c5.69,15.08,19.43,26.09,35.88,27.58.21-.83.43-1.66.69-2.47-1.98-5.37-5.14-10.39-9.56-14.58-7.58-7.21-17.34-10.69-27.01-10.52m49.8,11.9c-3.66,3.88-6.34,8.35-8.06,13.08.29.89.54,1.78.77,2.68,16.89-1.11,31.09-12.25,36.91-27.62-10.76-.55-21.67,3.42-29.62,11.85"/>
          <path class="cls-6" d="m27.75,53.41C19.98,46.02,9.92,42.55,0,42.91c0,.11,0,.22,0,.33,0,3.67.45,7.22,1.3,10.62,11.37-.57,22.96,3.34,31.88,11.82,2.02,1.92,3.78,4.01,5.34,6.2-1.72-6.83-5.3-13.27-10.77-18.46m57.3-10.44c-11-.78-22.23,3.19-30.37,11.82-4.61,4.89-7.66,10.7-9.2,16.82,1.08-1.52,2.26-2.99,3.57-4.38,9.28-9.85,22.14-14.3,34.69-13.29.86-3.42,1.32-7.01,1.32-10.7,0-.09,0-.18,0-.27"/>
          <path class="cls-4" d="m42.6,0C20.86,0,2.94,16.59.39,37.99c11.01-.27,22.15,3.67,30.78,11.87,5.03,4.78,8.62,10.51,10.83,16.64,1.94-5.46,4.98-10.61,9.2-15.08,9.02-9.57,21.41-14.04,33.62-13.36C82.3,16.62,64.36,0,42.6,0"/>
          <path id="wheat-ear" class="cls-3" d="m51.82,33.93c1.73-.68,2.97-1.36,4.29-2.74v2.62c0,13.47-6.54,9.44-12.5,15.76-.95-7.64,1.47-13.01,8.21-15.65m0-13.8c-6.74,2.64-9.16,8.01-8.21,15.65,5.96-6.32,12.5-2.29,12.5-15.76v-2.62c-1.32,1.38-2.56,2.06-4.29,2.74m-19.61,13.8c-1.73-.68-2.97-1.36-4.3-2.74v2.62c0,13.47,6.54,9.44,12.51,15.76.95-7.64-1.47-13.01-8.21-15.65m0-13.8c-1.73-.68-2.97-1.36-4.3-2.74v2.62c0,13.47,6.54,9.44,12.51,15.76.95-7.64-1.47-13.01-8.21-15.65m9.81,4.76c6.19-8.44,6.75-9.73,0-19.64-6.76,9.9-6.19,11.2,0,19.64"/>
          <path id="IFDC" class="cls-5" d="m95.9,5h22.24v77.52h-22.24V5Zm41.42,0h-3.05v77.52h22.24v-26.9h28.6v-18.16h-28.6v-11.93h32.49V5h-51.68Zm92.92-.04c21.37,0,38.76,17.39,38.76,38.76s-17.39,38.76-38.76,38.76h-8.57v.04h-22.24V5h5.97v-.04h24.84m-2.83,56.95c10.03,0,18.19-8.16,18.19-18.19s-8.16-18.19-18.19-18.19h-5.73v36.38h5.73m88.7-36.38h14.93V4.97h-17.77c-21.37,0-38.76,17.39-38.76,38.76s17.38,38.76,38.76,38.76h17.77v-20.57h-14.93c-10.03,0-18.19-8.16-18.19-18.19s8.16-18.19,18.19-18.19"/>
        </g>
      </g>
    </g>
  </g>
</svg>