<svg width="90" height="25" viewBox="0 0 90 25" fill="none" xmlns="http://www.w3.org/2000/svg">
<path fill-rule="evenodd" clip-rule="evenodd" d="M73.1616 24.7751H88.9593L90 19.2989H80.5588L84.2374 0H77.9183L73.1616 24.7725V24.7751ZM59.8359 15.0397L62.0136 9.70635C62.5942 8.28836 63.3753 6.46825 64.0067 4.92593H64.0816C64.2314 6.4709 64.3144 8.27249 64.392 9.66931L64.6943 15.0397H59.8359ZM64.919 19.7804L65.1758 24.7751H71.8668L69.1888 0H60.9007L49.0063 24.7725H55.8096L57.8829 19.7778H64.919V19.7804ZM38.2114 4.92857H39.4902C43.1313 4.92857 45.8307 6.73016 45.8307 10.4418C45.8307 13.1984 45.0575 15.4497 43.5995 17.2064C41.4539 19.7884 37.4971 19.836 35.3488 19.7804L38.2114 4.93122V4.92857ZM27.9971 24.7831C30.1159 24.746 31.8308 24.7884 35.1749 24.7884C40.9001 24.7884 44.6027 23.9656 47.5402 21.7249C50.6248 19.3704 52.7437 15.3651 52.7437 10.4418C52.7437 6.54497 51.3418 3.99471 49.0277 2.24603C46.7697 0.539683 43.6851 0 39.8942 0H32.7377L27.9944 24.7804L27.9971 24.7831ZM24.6128 0L19.8561 24.7725H26.1752L30.9319 0H24.6128ZM12.1566 22.2857L23.3795 0H16.2792L8.44327 15.5556L6.54113 0H0L2.46128 20.1296C2.59772 21.2381 3.03647 22.2407 3.68122 23.0635C4.7674 24.4524 6.36723 25.1376 8.13561 24.9762C9.90399 24.8122 11.3647 23.8571 12.1566 22.2831V22.2857Z" fill="#ED3237"/>
</svg>
